<svg width="246" height="386" viewBox="0 0 246 386" fill="none" xmlns="http://www.w3.org/2000/svg">
<path d="M396.759 316.042L320.052 240.282C312.982 233.311 317.452 221.263 327.358 220.59L434.917 213.194C448.64 212.255 449.465 192.38 435.859 190.31L329.284 174.114C319.479 172.622 316.003 160.252 323.619 153.884L406.29 84.68C416.843 75.8311 405.819 59.2728 393.594 65.5962L297.854 115.133C289.042 119.688 278.969 111.734 281.378 102.102L307.575 -2.46408C310.921 -15.8185 292.27 -22.7382 286.095 -10.4335L237.751 85.9154C233.293 94.7876 220.471 94.2474 216.762 85.0465L176.483 -14.9552C171.342 -27.7217 152.186 -22.3605 154.413 -8.76983L171.941 97.6087C173.56 107.404 162.857 114.513 154.451 109.248L63.1025 52.0119C51.4393 44.7064 39.085 60.3042 48.8909 69.973L125.597 145.734C132.667 152.705 128.197 164.754 118.291 165.426L10.7328 172.821C-2.99632 173.776 -3.81587 193.636 9.78988 195.706L116.365 211.902C126.17 213.394 129.647 225.764 122.03 232.132L39.3599 301.335C28.8128 310.168 39.8362 326.726 52.0607 320.403L147.818 270.873C156.63 266.317 166.696 274.288 164.294 283.904L138.096 388.47C134.751 401.825 153.402 408.744 159.576 396.44L207.921 300.09C212.378 291.218 225.207 291.742 228.91 300.959L269.172 400.954C274.314 413.721 293.47 408.36 291.236 394.785L273.709 288.407C272.105 278.618 282.792 271.503 291.198 276.768L382.547 334.004C394.21 341.31 406.565 325.711 396.759 316.042Z" fill="#C2B4A3"/>
</svg>
