<svg width="131" height="47" viewBox="0 0 131 47" fill="none" xmlns="http://www.w3.org/2000/svg">
<rect x="0.5" y="0.5" width="130" height="46" rx="23" fill="#1A1A1A"/>
<rect x="0.5" y="0.5" width="130" height="46" rx="23" stroke="#262626" stroke-dasharray="8 8"/>
<path d="M22.2227 18.3369L17.9863 30H16.2549L21.1328 17.2031H22.249L22.2227 18.3369ZM25.7734 30L21.5283 18.3369L21.502 17.2031H22.6182L27.5137 30H25.7734ZM25.5537 25.2627V26.6514H18.3643V25.2627H25.5537ZM32.7871 28.8398C33.1738 28.8398 33.5312 28.7607 33.8594 28.6025C34.1875 28.4443 34.457 28.2275 34.668 27.9521C34.8789 27.6709 34.999 27.3516 35.0283 26.9941H36.5752C36.5459 27.5566 36.3555 28.0811 36.0039 28.5674C35.6582 29.0479 35.2041 29.4375 34.6416 29.7363C34.0791 30.0293 33.4609 30.1758 32.7871 30.1758C32.0723 30.1758 31.4482 30.0498 30.915 29.7979C30.3877 29.5459 29.9482 29.2002 29.5967 28.7607C29.251 28.3213 28.9902 27.8174 28.8145 27.249C28.6445 26.6748 28.5596 26.0684 28.5596 25.4297V25.0605C28.5596 24.4219 28.6445 23.8184 28.8145 23.25C28.9902 22.6758 29.251 22.1689 29.5967 21.7295C29.9482 21.29 30.3877 20.9443 30.915 20.6924C31.4482 20.4404 32.0723 20.3145 32.7871 20.3145C33.5312 20.3145 34.1816 20.4668 34.7383 20.7715C35.2949 21.0703 35.7314 21.4805 36.0479 22.002C36.3701 22.5176 36.5459 23.1035 36.5752 23.7598H35.0283C34.999 23.3672 34.8877 23.0127 34.6943 22.6963C34.5068 22.3799 34.249 22.1279 33.9209 21.9404C33.5986 21.7471 33.2207 21.6504 32.7871 21.6504C32.2891 21.6504 31.8701 21.75 31.5303 21.9492C31.1963 22.1426 30.9297 22.4062 30.7305 22.7402C30.5371 23.0684 30.3965 23.4346 30.3086 23.8389C30.2266 24.2373 30.1855 24.6445 30.1855 25.0605V25.4297C30.1855 25.8457 30.2266 26.2559 30.3086 26.6602C30.3906 27.0645 30.5283 27.4307 30.7217 27.7588C30.9209 28.0869 31.1875 28.3506 31.5215 28.5498C31.8613 28.7432 32.2832 28.8398 32.7871 28.8398ZM42.209 28.8398C42.5957 28.8398 42.9531 28.7607 43.2812 28.6025C43.6094 28.4443 43.8789 28.2275 44.0898 27.9521C44.3008 27.6709 44.4209 27.3516 44.4502 26.9941H45.9971C45.9678 27.5566 45.7773 28.0811 45.4258 28.5674C45.0801 29.0479 44.626 29.4375 44.0635 29.7363C43.501 30.0293 42.8828 30.1758 42.209 30.1758C41.4941 30.1758 40.8701 30.0498 40.3369 29.7979C39.8096 29.5459 39.3701 29.2002 39.0186 28.7607C38.6729 28.3213 38.4121 27.8174 38.2363 27.249C38.0664 26.6748 37.9814 26.0684 37.9814 25.4297V25.0605C37.9814 24.4219 38.0664 23.8184 38.2363 23.25C38.4121 22.6758 38.6729 22.1689 39.0186 21.7295C39.3701 21.29 39.8096 20.9443 40.3369 20.6924C40.8701 20.4404 41.4941 20.3145 42.209 20.3145C42.9531 20.3145 43.6035 20.4668 44.1602 20.7715C44.7168 21.0703 45.1533 21.4805 45.4697 22.002C45.792 22.5176 45.9678 23.1035 45.9971 23.7598H44.4502C44.4209 23.3672 44.3096 23.0127 44.1162 22.6963C43.9287 22.3799 43.6709 22.1279 43.3428 21.9404C43.0205 21.7471 42.6426 21.6504 42.209 21.6504C41.7109 21.6504 41.292 21.75 40.9521 21.9492C40.6182 22.1426 40.3516 22.4062 40.1523 22.7402C39.959 23.0684 39.8184 23.4346 39.7305 23.8389C39.6484 24.2373 39.6074 24.6445 39.6074 25.0605V25.4297C39.6074 25.8457 39.6484 26.2559 39.7305 26.6602C39.8125 27.0645 39.9502 27.4307 40.1436 27.7588C40.3428 28.0869 40.6094 28.3506 40.9434 28.5498C41.2832 28.7432 41.7051 28.8398 42.209 28.8398ZM51.7715 30.1758C51.1094 30.1758 50.5088 30.0645 49.9697 29.8418C49.4365 29.6133 48.9766 29.2939 48.5898 28.8838C48.209 28.4736 47.916 27.9873 47.7109 27.4248C47.5059 26.8623 47.4033 26.2471 47.4033 25.5791V25.21C47.4033 24.4365 47.5176 23.748 47.7461 23.1445C47.9746 22.5352 48.2852 22.0195 48.6777 21.5977C49.0703 21.1758 49.5156 20.8564 50.0137 20.6396C50.5117 20.4229 51.0273 20.3145 51.5605 20.3145C52.2402 20.3145 52.8262 20.4316 53.3184 20.666C53.8164 20.9004 54.2236 21.2285 54.54 21.6504C54.8564 22.0664 55.0908 22.5586 55.2432 23.127C55.3955 23.6895 55.4717 24.3047 55.4717 24.9727V25.7021H48.3701V24.375H53.8457V24.252C53.8223 23.8301 53.7344 23.4199 53.582 23.0215C53.4355 22.623 53.2012 22.2949 52.8789 22.0371C52.5566 21.7793 52.1172 21.6504 51.5605 21.6504C51.1914 21.6504 50.8516 21.7295 50.541 21.8877C50.2305 22.04 49.9639 22.2686 49.7412 22.5732C49.5186 22.8779 49.3457 23.25 49.2227 23.6895C49.0996 24.1289 49.0381 24.6357 49.0381 25.21V25.5791C49.0381 26.0303 49.0996 26.4551 49.2227 26.8535C49.3516 27.2461 49.5361 27.5918 49.7764 27.8906C50.0225 28.1895 50.3184 28.4238 50.6641 28.5938C51.0156 28.7637 51.4141 28.8486 51.8594 28.8486C52.4336 28.8486 52.9199 28.7314 53.3184 28.4971C53.7168 28.2627 54.0654 27.9492 54.3643 27.5566L55.3486 28.3389C55.1436 28.6494 54.8828 28.9453 54.5664 29.2266C54.25 29.5078 53.8604 29.7363 53.3975 29.9121C52.9404 30.0879 52.3984 30.1758 51.7715 30.1758ZM62.9072 27.4775C62.9072 27.2432 62.8545 27.0264 62.749 26.8271C62.6494 26.6221 62.4414 26.4375 62.125 26.2734C61.8145 26.1035 61.3457 25.957 60.7188 25.834C60.1914 25.7227 59.7139 25.5908 59.2861 25.4385C58.8643 25.2861 58.5039 25.1016 58.2051 24.8848C57.9121 24.668 57.6865 24.4131 57.5283 24.1201C57.3701 23.8271 57.291 23.4844 57.291 23.0918C57.291 22.7168 57.373 22.3623 57.5371 22.0283C57.707 21.6943 57.9443 21.3984 58.249 21.1406C58.5596 20.8828 58.9316 20.6807 59.3652 20.5342C59.7988 20.3877 60.2822 20.3145 60.8154 20.3145C61.5771 20.3145 62.2275 20.4492 62.7666 20.7188C63.3057 20.9883 63.7188 21.3486 64.0059 21.7998C64.293 22.2451 64.4365 22.7402 64.4365 23.2852H62.8105C62.8105 23.0215 62.7314 22.7666 62.5732 22.5205C62.4209 22.2686 62.1953 22.0605 61.8965 21.8965C61.6035 21.7324 61.2432 21.6504 60.8154 21.6504C60.3643 21.6504 59.998 21.7207 59.7168 21.8613C59.4414 21.9961 59.2393 22.1689 59.1104 22.3799C58.9873 22.5908 58.9258 22.8135 58.9258 23.0479C58.9258 23.2236 58.9551 23.3818 59.0137 23.5225C59.0781 23.6572 59.1895 23.7832 59.3477 23.9004C59.5059 24.0117 59.7285 24.1172 60.0156 24.2168C60.3027 24.3164 60.6689 24.416 61.1143 24.5156C61.8936 24.6914 62.5352 24.9023 63.0391 25.1484C63.543 25.3945 63.918 25.6963 64.1641 26.0537C64.4102 26.4111 64.5332 26.8447 64.5332 27.3545C64.5332 27.7705 64.4453 28.1514 64.2695 28.4971C64.0996 28.8428 63.8506 29.1416 63.5225 29.3936C63.2002 29.6396 62.8135 29.833 62.3623 29.9736C61.917 30.1084 61.416 30.1758 60.8594 30.1758C60.0215 30.1758 59.3125 30.0264 58.7324 29.7275C58.1523 29.4287 57.7129 29.042 57.4141 28.5674C57.1152 28.0928 56.9658 27.5918 56.9658 27.0645H58.6006C58.624 27.5098 58.7529 27.8643 58.9873 28.1279C59.2217 28.3857 59.5088 28.5703 59.8486 28.6816C60.1885 28.7871 60.5254 28.8398 60.8594 28.8398C61.3047 28.8398 61.6768 28.7812 61.9756 28.6641C62.2803 28.5469 62.5117 28.3857 62.6699 28.1807C62.8281 27.9756 62.9072 27.7412 62.9072 27.4775ZM72.2061 27.4775C72.2061 27.2432 72.1533 27.0264 72.0479 26.8271C71.9482 26.6221 71.7402 26.4375 71.4238 26.2734C71.1133 26.1035 70.6445 25.957 70.0176 25.834C69.4902 25.7227 69.0127 25.5908 68.585 25.4385C68.1631 25.2861 67.8027 25.1016 67.5039 24.8848C67.2109 24.668 66.9854 24.4131 66.8271 24.1201C66.6689 23.8271 66.5898 23.4844 66.5898 23.0918C66.5898 22.7168 66.6719 22.3623 66.8359 22.0283C67.0059 21.6943 67.2432 21.3984 67.5479 21.1406C67.8584 20.8828 68.2305 20.6807 68.6641 20.5342C69.0977 20.3877 69.5811 20.3145 70.1143 20.3145C70.876 20.3145 71.5264 20.4492 72.0654 20.7188C72.6045 20.9883 73.0176 21.3486 73.3047 21.7998C73.5918 22.2451 73.7354 22.7402 73.7354 23.2852H72.1094C72.1094 23.0215 72.0303 22.7666 71.8721 22.5205C71.7197 22.2686 71.4941 22.0605 71.1953 21.8965C70.9023 21.7324 70.542 21.6504 70.1143 21.6504C69.6631 21.6504 69.2969 21.7207 69.0156 21.8613C68.7402 21.9961 68.5381 22.1689 68.4092 22.3799C68.2861 22.5908 68.2246 22.8135 68.2246 23.0479C68.2246 23.2236 68.2539 23.3818 68.3125 23.5225C68.377 23.6572 68.4883 23.7832 68.6465 23.9004C68.8047 24.0117 69.0273 24.1172 69.3145 24.2168C69.6016 24.3164 69.9678 24.416 70.4131 24.5156C71.1924 24.6914 71.834 24.9023 72.3379 25.1484C72.8418 25.3945 73.2168 25.6963 73.4629 26.0537C73.709 26.4111 73.832 26.8447 73.832 27.3545C73.832 27.7705 73.7441 28.1514 73.5684 28.4971C73.3984 28.8428 73.1494 29.1416 72.8213 29.3936C72.499 29.6396 72.1123 29.833 71.6611 29.9736C71.2158 30.1084 70.7148 30.1758 70.1582 30.1758C69.3203 30.1758 68.6113 30.0264 68.0312 29.7275C67.4512 29.4287 67.0117 29.042 66.7129 28.5674C66.4141 28.0928 66.2646 27.5918 66.2646 27.0645H67.8994C67.9229 27.5098 68.0518 27.8643 68.2861 28.1279C68.5205 28.3857 68.8076 28.5703 69.1475 28.6816C69.4873 28.7871 69.8242 28.8398 70.1582 28.8398C70.6035 28.8398 70.9756 28.7812 71.2744 28.6641C71.5791 28.5469 71.8105 28.3857 71.9688 28.1807C72.127 27.9756 72.2061 27.7412 72.2061 27.4775ZM75.5371 25.3506V25.1484C75.5371 24.4629 75.6367 23.8271 75.8359 23.2412C76.0352 22.6494 76.3223 22.1367 76.6973 21.7031C77.0723 21.2637 77.5264 20.9238 78.0596 20.6836C78.5928 20.4375 79.1904 20.3145 79.8525 20.3145C80.5205 20.3145 81.1211 20.4375 81.6543 20.6836C82.1934 20.9238 82.6504 21.2637 83.0254 21.7031C83.4062 22.1367 83.6963 22.6494 83.8955 23.2412C84.0947 23.8271 84.1943 24.4629 84.1943 25.1484V25.3506C84.1943 26.0361 84.0947 26.6719 83.8955 27.2578C83.6963 27.8438 83.4062 28.3564 83.0254 28.7959C82.6504 29.2295 82.1963 29.5693 81.6631 29.8154C81.1357 30.0557 80.5381 30.1758 79.8701 30.1758C79.2021 30.1758 78.6016 30.0557 78.0684 29.8154C77.5352 29.5693 77.0781 29.2295 76.6973 28.7959C76.3223 28.3564 76.0352 27.8438 75.8359 27.2578C75.6367 26.6719 75.5371 26.0361 75.5371 25.3506ZM77.1631 25.1484V25.3506C77.1631 25.8252 77.2188 26.2734 77.3301 26.6953C77.4414 27.1113 77.6084 27.4805 77.8311 27.8027C78.0596 28.125 78.3438 28.3799 78.6836 28.5674C79.0234 28.749 79.4189 28.8398 79.8701 28.8398C80.3154 28.8398 80.7051 28.749 81.0391 28.5674C81.3789 28.3799 81.6602 28.125 81.8828 27.8027C82.1055 27.4805 82.2725 27.1113 82.3838 26.6953C82.501 26.2734 82.5596 25.8252 82.5596 25.3506V25.1484C82.5596 24.6797 82.501 24.2373 82.3838 23.8213C82.2725 23.3994 82.1025 23.0273 81.874 22.7051C81.6514 22.377 81.3701 22.1191 81.0303 21.9316C80.6963 21.7441 80.3037 21.6504 79.8525 21.6504C79.4072 21.6504 79.0146 21.7441 78.6748 21.9316C78.3408 22.1191 78.0596 22.377 77.8311 22.7051C77.6084 23.0273 77.4414 23.3994 77.3301 23.8213C77.2188 24.2373 77.1631 24.6797 77.1631 25.1484ZM87.8594 21.9844V30H86.2334V20.4902H87.8154L87.8594 21.9844ZM90.8301 20.4375L90.8213 21.9492C90.6865 21.9199 90.5576 21.9023 90.4346 21.8965C90.3174 21.8848 90.1826 21.8789 90.0303 21.8789C89.6553 21.8789 89.3242 21.9375 89.0371 22.0547C88.75 22.1719 88.5068 22.3359 88.3076 22.5469C88.1084 22.7578 87.9502 23.0098 87.833 23.3027C87.7217 23.5898 87.6484 23.9062 87.6133 24.252L87.1562 24.5156C87.1562 23.9414 87.2119 23.4023 87.3232 22.8984C87.4404 22.3945 87.6191 21.9492 87.8594 21.5625C88.0996 21.1699 88.4043 20.8652 88.7734 20.6484C89.1484 20.4258 89.5938 20.3145 90.1094 20.3145C90.2266 20.3145 90.3613 20.3291 90.5137 20.3584C90.666 20.3818 90.7715 20.4082 90.8301 20.4375ZM94.0996 20.4902V30H92.4648V20.4902H94.0996ZM92.3418 17.9678C92.3418 17.7041 92.4209 17.4814 92.5791 17.2998C92.7432 17.1182 92.9834 17.0273 93.2998 17.0273C93.6104 17.0273 93.8477 17.1182 94.0117 17.2998C94.1816 17.4814 94.2666 17.7041 94.2666 17.9678C94.2666 18.2197 94.1816 18.4365 94.0117 18.6182C93.8477 18.7939 93.6104 18.8818 93.2998 18.8818C92.9834 18.8818 92.7432 18.7939 92.5791 18.6182C92.4209 18.4365 92.3418 18.2197 92.3418 17.9678ZM100.656 30.1758C99.9941 30.1758 99.3936 30.0645 98.8545 29.8418C98.3213 29.6133 97.8613 29.2939 97.4746 28.8838C97.0938 28.4736 96.8008 27.9873 96.5957 27.4248C96.3906 26.8623 96.2881 26.2471 96.2881 25.5791V25.21C96.2881 24.4365 96.4023 23.748 96.6309 23.1445C96.8594 22.5352 97.1699 22.0195 97.5625 21.5977C97.9551 21.1758 98.4004 20.8564 98.8984 20.6396C99.3965 20.4229 99.9121 20.3145 100.445 20.3145C101.125 20.3145 101.711 20.4316 102.203 20.666C102.701 20.9004 103.108 21.2285 103.425 21.6504C103.741 22.0664 103.976 22.5586 104.128 23.127C104.28 23.6895 104.356 24.3047 104.356 24.9727V25.7021H97.2549V24.375H102.73V24.252C102.707 23.8301 102.619 23.4199 102.467 23.0215C102.32 22.623 102.086 22.2949 101.764 22.0371C101.441 21.7793 101.002 21.6504 100.445 21.6504C100.076 21.6504 99.7363 21.7295 99.4258 21.8877C99.1152 22.04 98.8486 22.2686 98.626 22.5732C98.4033 22.8779 98.2305 23.25 98.1074 23.6895C97.9844 24.1289 97.9229 24.6357 97.9229 25.21V25.5791C97.9229 26.0303 97.9844 26.4551 98.1074 26.8535C98.2363 27.2461 98.4209 27.5918 98.6611 27.8906C98.9072 28.1895 99.2031 28.4238 99.5488 28.5938C99.9004 28.7637 100.299 28.8486 100.744 28.8486C101.318 28.8486 101.805 28.7314 102.203 28.4971C102.602 28.2627 102.95 27.9492 103.249 27.5566L104.233 28.3389C104.028 28.6494 103.768 28.9453 103.451 29.2266C103.135 29.5078 102.745 29.7363 102.282 29.9121C101.825 30.0879 101.283 30.1758 100.656 30.1758ZM111.792 27.4775C111.792 27.2432 111.739 27.0264 111.634 26.8271C111.534 26.6221 111.326 26.4375 111.01 26.2734C110.699 26.1035 110.23 25.957 109.604 25.834C109.076 25.7227 108.599 25.5908 108.171 25.4385C107.749 25.2861 107.389 25.1016 107.09 24.8848C106.797 24.668 106.571 24.4131 106.413 24.1201C106.255 23.8271 106.176 23.4844 106.176 23.0918C106.176 22.7168 106.258 22.3623 106.422 22.0283C106.592 21.6943 106.829 21.3984 107.134 21.1406C107.444 20.8828 107.816 20.6807 108.25 20.5342C108.684 20.3877 109.167 20.3145 109.7 20.3145C110.462 20.3145 111.112 20.4492 111.651 20.7188C112.19 20.9883 112.604 21.3486 112.891 21.7998C113.178 22.2451 113.321 22.7402 113.321 23.2852H111.695C111.695 23.0215 111.616 22.7666 111.458 22.5205C111.306 22.2686 111.08 22.0605 110.781 21.8965C110.488 21.7324 110.128 21.6504 109.7 21.6504C109.249 21.6504 108.883 21.7207 108.602 21.8613C108.326 21.9961 108.124 22.1689 107.995 22.3799C107.872 22.5908 107.811 22.8135 107.811 23.0479C107.811 23.2236 107.84 23.3818 107.898 23.5225C107.963 23.6572 108.074 23.7832 108.232 23.9004C108.391 24.0117 108.613 24.1172 108.9 24.2168C109.188 24.3164 109.554 24.416 109.999 24.5156C110.778 24.6914 111.42 24.9023 111.924 25.1484C112.428 25.3945 112.803 25.6963 113.049 26.0537C113.295 26.4111 113.418 26.8447 113.418 27.3545C113.418 27.7705 113.33 28.1514 113.154 28.4971C112.984 28.8428 112.735 29.1416 112.407 29.3936C112.085 29.6396 111.698 29.833 111.247 29.9736C110.802 30.1084 110.301 30.1758 109.744 30.1758C108.906 30.1758 108.197 30.0264 107.617 29.7275C107.037 29.4287 106.598 29.042 106.299 28.5674C106 28.0928 105.851 27.5918 105.851 27.0645H107.485C107.509 27.5098 107.638 27.8643 107.872 28.1279C108.106 28.3857 108.394 28.5703 108.733 28.6816C109.073 28.7871 109.41 28.8398 109.744 28.8398C110.189 28.8398 110.562 28.7812 110.86 28.6641C111.165 28.5469 111.396 28.3857 111.555 28.1807C111.713 27.9756 111.792 27.7412 111.792 27.4775Z" fill="#B3B3B2"/>
</svg>
