<svg width="142" height="47" viewBox="0 0 142 47" fill="none" xmlns="http://www.w3.org/2000/svg">
<rect x="0.5" y="0.5" width="141" height="46" rx="23" fill="#1A1A1A"/>
<rect x="0.5" y="0.5" width="141" height="46" rx="23" stroke="#262626" stroke-dasharray="8 8"/>
<path d="M20.8516 26.1328L23.3916 17.2031H24.6221L23.9102 20.6748L21.1768 30H19.9551L20.8516 26.1328ZM18.2236 17.2031L20.2451 25.957L20.8516 30H19.6387L16.5361 17.2031H18.2236ZM27.9092 25.9482L29.8867 17.2031H31.583L28.4893 30H27.2764L27.9092 25.9482ZM24.8066 17.2031L27.2764 26.1328L28.1729 30H26.9512L24.3145 20.6748L23.5938 17.2031H24.8066ZM32.5059 25.3506V25.1484C32.5059 24.4629 32.6055 23.8271 32.8047 23.2412C33.0039 22.6494 33.291 22.1367 33.666 21.7031C34.041 21.2637 34.4951 20.9238 35.0283 20.6836C35.5615 20.4375 36.1592 20.3145 36.8213 20.3145C37.4893 20.3145 38.0898 20.4375 38.623 20.6836C39.1621 20.9238 39.6191 21.2637 39.9941 21.7031C40.375 22.1367 40.665 22.6494 40.8643 23.2412C41.0635 23.8271 41.1631 24.4629 41.1631 25.1484V25.3506C41.1631 26.0361 41.0635 26.6719 40.8643 27.2578C40.665 27.8438 40.375 28.3564 39.9941 28.7959C39.6191 29.2295 39.165 29.5693 38.6318 29.8154C38.1045 30.0557 37.5068 30.1758 36.8389 30.1758C36.1709 30.1758 35.5703 30.0557 35.0371 29.8154C34.5039 29.5693 34.0469 29.2295 33.666 28.7959C33.291 28.3564 33.0039 27.8438 32.8047 27.2578C32.6055 26.6719 32.5059 26.0361 32.5059 25.3506ZM34.1318 25.1484V25.3506C34.1318 25.8252 34.1875 26.2734 34.2988 26.6953C34.4102 27.1113 34.5771 27.4805 34.7998 27.8027C35.0283 28.125 35.3125 28.3799 35.6523 28.5674C35.9922 28.749 36.3877 28.8398 36.8389 28.8398C37.2842 28.8398 37.6738 28.749 38.0078 28.5674C38.3477 28.3799 38.6289 28.125 38.8516 27.8027C39.0742 27.4805 39.2412 27.1113 39.3525 26.6953C39.4697 26.2734 39.5283 25.8252 39.5283 25.3506V25.1484C39.5283 24.6797 39.4697 24.2373 39.3525 23.8213C39.2412 23.3994 39.0713 23.0273 38.8428 22.7051C38.6201 22.377 38.3389 22.1191 37.999 21.9316C37.665 21.7441 37.2725 21.6504 36.8213 21.6504C36.376 21.6504 35.9834 21.7441 35.6436 21.9316C35.3096 22.1191 35.0283 22.377 34.7998 22.7051C34.5771 23.0273 34.4102 23.3994 34.2988 23.8213C34.1875 24.2373 34.1318 24.6797 34.1318 25.1484ZM44.8193 22.3799V30H43.1846V20.4902H44.7314L44.8193 22.3799ZM44.4854 24.8848L43.7295 24.8584C43.7354 24.208 43.8203 23.6074 43.9844 23.0566C44.1484 22.5 44.3916 22.0166 44.7139 21.6064C45.0361 21.1963 45.4375 20.8799 45.918 20.6572C46.3984 20.4287 46.9551 20.3145 47.5879 20.3145C48.0332 20.3145 48.4434 20.3789 48.8184 20.5078C49.1934 20.6309 49.5186 20.8271 49.7939 21.0967C50.0693 21.3662 50.2832 21.7119 50.4355 22.1338C50.5879 22.5557 50.6641 23.0654 50.6641 23.6631V30H49.0381V23.7422C49.0381 23.2441 48.9531 22.8457 48.7832 22.5469C48.6191 22.248 48.3848 22.0312 48.0801 21.8965C47.7754 21.7559 47.418 21.6855 47.0078 21.6855C46.5273 21.6855 46.126 21.7705 45.8037 21.9404C45.4814 22.1104 45.2236 22.3447 45.0303 22.6436C44.8369 22.9424 44.6963 23.2852 44.6084 23.6719C44.5264 24.0527 44.4854 24.457 44.4854 24.8848ZM50.6465 23.9883L49.5566 24.3223C49.5625 23.8008 49.6475 23.2998 49.8115 22.8193C49.9814 22.3389 50.2246 21.9111 50.541 21.5361C50.8633 21.1611 51.2588 20.8652 51.7275 20.6484C52.1963 20.4258 52.7324 20.3145 53.3359 20.3145C53.8457 20.3145 54.2969 20.3818 54.6895 20.5166C55.0879 20.6514 55.4219 20.8594 55.6914 21.1406C55.9668 21.416 56.1748 21.7705 56.3154 22.2041C56.4561 22.6377 56.5264 23.1533 56.5264 23.751V30H54.8916V23.7334C54.8916 23.2002 54.8066 22.7871 54.6367 22.4941C54.4727 22.1953 54.2383 21.9873 53.9336 21.8701C53.6348 21.7471 53.2773 21.6855 52.8613 21.6855C52.5039 21.6855 52.1875 21.7471 51.9121 21.8701C51.6367 21.9932 51.4053 22.1631 51.2178 22.3799C51.0303 22.5908 50.8867 22.834 50.7871 23.1094C50.6934 23.3848 50.6465 23.6777 50.6465 23.9883ZM62.9336 30.1758C62.2715 30.1758 61.6709 30.0645 61.1318 29.8418C60.5986 29.6133 60.1387 29.2939 59.752 28.8838C59.3711 28.4736 59.0781 27.9873 58.873 27.4248C58.668 26.8623 58.5654 26.2471 58.5654 25.5791V25.21C58.5654 24.4365 58.6797 23.748 58.9082 23.1445C59.1367 22.5352 59.4473 22.0195 59.8398 21.5977C60.2324 21.1758 60.6777 20.8564 61.1758 20.6396C61.6738 20.4229 62.1895 20.3145 62.7227 20.3145C63.4023 20.3145 63.9883 20.4316 64.4805 20.666C64.9785 20.9004 65.3857 21.2285 65.7021 21.6504C66.0186 22.0664 66.2529 22.5586 66.4053 23.127C66.5576 23.6895 66.6338 24.3047 66.6338 24.9727V25.7021H59.5322V24.375H65.0078V24.252C64.9844 23.8301 64.8965 23.4199 64.7441 23.0215C64.5977 22.623 64.3633 22.2949 64.041 22.0371C63.7188 21.7793 63.2793 21.6504 62.7227 21.6504C62.3535 21.6504 62.0137 21.7295 61.7031 21.8877C61.3926 22.04 61.126 22.2686 60.9033 22.5732C60.6807 22.8779 60.5078 23.25 60.3848 23.6895C60.2617 24.1289 60.2002 24.6357 60.2002 25.21V25.5791C60.2002 26.0303 60.2617 26.4551 60.3848 26.8535C60.5137 27.2461 60.6982 27.5918 60.9385 27.8906C61.1846 28.1895 61.4805 28.4238 61.8262 28.5938C62.1777 28.7637 62.5762 28.8486 63.0215 28.8486C63.5957 28.8486 64.082 28.7314 64.4805 28.4971C64.8789 28.2627 65.2275 27.9492 65.5264 27.5566L66.5107 28.3389C66.3057 28.6494 66.0449 28.9453 65.7285 29.2266C65.4121 29.5078 65.0225 29.7363 64.5596 29.9121C64.1025 30.0879 63.5605 30.1758 62.9336 30.1758ZM70.1582 22.5205V30H68.5322V20.4902H70.0703L70.1582 22.5205ZM69.7715 24.8848L69.0947 24.8584C69.1006 24.208 69.1973 23.6074 69.3848 23.0566C69.5723 22.5 69.8359 22.0166 70.1758 21.6064C70.5156 21.1963 70.9199 20.8799 71.3887 20.6572C71.8633 20.4287 72.3877 20.3145 72.9619 20.3145C73.4307 20.3145 73.8525 20.3789 74.2275 20.5078C74.6025 20.6309 74.9219 20.8301 75.1855 21.1055C75.4551 21.3809 75.6602 21.7383 75.8008 22.1777C75.9414 22.6113 76.0117 23.1416 76.0117 23.7686V30H74.377V23.751C74.377 23.2529 74.3037 22.8545 74.1572 22.5557C74.0107 22.251 73.7969 22.0312 73.5156 21.8965C73.2344 21.7559 72.8887 21.6855 72.4785 21.6855C72.0742 21.6855 71.7051 21.7705 71.3711 21.9404C71.043 22.1104 70.7588 22.3447 70.5186 22.6436C70.2842 22.9424 70.0996 23.2852 69.9648 23.6719C69.8359 24.0527 69.7715 24.457 69.7715 24.8848ZM84.0186 27.4775C84.0186 27.2432 83.9658 27.0264 83.8604 26.8271C83.7607 26.6221 83.5527 26.4375 83.2363 26.2734C82.9258 26.1035 82.457 25.957 81.8301 25.834C81.3027 25.7227 80.8252 25.5908 80.3975 25.4385C79.9756 25.2861 79.6152 25.1016 79.3164 24.8848C79.0234 24.668 78.7979 24.4131 78.6396 24.1201C78.4814 23.8271 78.4023 23.4844 78.4023 23.0918C78.4023 22.7168 78.4844 22.3623 78.6484 22.0283C78.8184 21.6943 79.0557 21.3984 79.3604 21.1406C79.6709 20.8828 80.043 20.6807 80.4766 20.5342C80.9102 20.3877 81.3936 20.3145 81.9268 20.3145C82.6885 20.3145 83.3389 20.4492 83.8779 20.7188C84.417 20.9883 84.8301 21.3486 85.1172 21.7998C85.4043 22.2451 85.5479 22.7402 85.5479 23.2852H83.9219C83.9219 23.0215 83.8428 22.7666 83.6846 22.5205C83.5322 22.2686 83.3066 22.0605 83.0078 21.8965C82.7148 21.7324 82.3545 21.6504 81.9268 21.6504C81.4756 21.6504 81.1094 21.7207 80.8281 21.8613C80.5527 21.9961 80.3506 22.1689 80.2217 22.3799C80.0986 22.5908 80.0371 22.8135 80.0371 23.0479C80.0371 23.2236 80.0664 23.3818 80.125 23.5225C80.1895 23.6572 80.3008 23.7832 80.459 23.9004C80.6172 24.0117 80.8398 24.1172 81.127 24.2168C81.4141 24.3164 81.7803 24.416 82.2256 24.5156C83.0049 24.6914 83.6465 24.9023 84.1504 25.1484C84.6543 25.3945 85.0293 25.6963 85.2754 26.0537C85.5215 26.4111 85.6445 26.8447 85.6445 27.3545C85.6445 27.7705 85.5566 28.1514 85.3809 28.4971C85.2109 28.8428 84.9619 29.1416 84.6338 29.3936C84.3115 29.6396 83.9248 29.833 83.4736 29.9736C83.0283 30.1084 82.5273 30.1758 81.9707 30.1758C81.1328 30.1758 80.4238 30.0264 79.8438 29.7275C79.2637 29.4287 78.8242 29.042 78.5254 28.5674C78.2266 28.0928 78.0771 27.5918 78.0771 27.0645H79.7119C79.7354 27.5098 79.8643 27.8643 80.0986 28.1279C80.333 28.3857 80.6201 28.5703 80.96 28.6816C81.2998 28.7871 81.6367 28.8398 81.9707 28.8398C82.416 28.8398 82.7881 28.7812 83.0869 28.6641C83.3916 28.5469 83.623 28.3857 83.7812 28.1807C83.9395 27.9756 84.0186 27.7412 84.0186 27.4775ZM90.1885 28.3125L92.6318 20.4902H93.7041L93.4932 22.0459L91.0059 30H89.96L90.1885 28.3125ZM88.5449 20.4902L90.6279 28.4004L90.7773 30H89.6787L86.9189 20.4902H88.5449ZM96.042 28.3389L98.0283 20.4902H99.6455L96.8857 30H95.7959L96.042 28.3389ZM93.9414 20.4902L96.332 28.1807L96.6045 30H95.5674L93.0098 22.0283L92.7988 20.4902H93.9414ZM105.262 30.1758C104.6 30.1758 103.999 30.0645 103.46 29.8418C102.927 29.6133 102.467 29.2939 102.08 28.8838C101.699 28.4736 101.406 27.9873 101.201 27.4248C100.996 26.8623 100.894 26.2471 100.894 25.5791V25.21C100.894 24.4365 101.008 23.748 101.236 23.1445C101.465 22.5352 101.775 22.0195 102.168 21.5977C102.561 21.1758 103.006 20.8564 103.504 20.6396C104.002 20.4229 104.518 20.3145 105.051 20.3145C105.73 20.3145 106.316 20.4316 106.809 20.666C107.307 20.9004 107.714 21.2285 108.03 21.6504C108.347 22.0664 108.581 22.5586 108.733 23.127C108.886 23.6895 108.962 24.3047 108.962 24.9727V25.7021H101.86V24.375H107.336V24.252C107.312 23.8301 107.225 23.4199 107.072 23.0215C106.926 22.623 106.691 22.2949 106.369 22.0371C106.047 21.7793 105.607 21.6504 105.051 21.6504C104.682 21.6504 104.342 21.7295 104.031 21.8877C103.721 22.04 103.454 22.2686 103.231 22.5732C103.009 22.8779 102.836 23.25 102.713 23.6895C102.59 24.1289 102.528 24.6357 102.528 25.21V25.5791C102.528 26.0303 102.59 26.4551 102.713 26.8535C102.842 27.2461 103.026 27.5918 103.267 27.8906C103.513 28.1895 103.809 28.4238 104.154 28.5938C104.506 28.7637 104.904 28.8486 105.35 28.8486C105.924 28.8486 106.41 28.7314 106.809 28.4971C107.207 28.2627 107.556 27.9492 107.854 27.5566L108.839 28.3389C108.634 28.6494 108.373 28.9453 108.057 29.2266C107.74 29.5078 107.351 29.7363 106.888 29.9121C106.431 30.0879 105.889 30.1758 105.262 30.1758ZM116.468 28.374V23.4785C116.468 23.1035 116.392 22.7783 116.239 22.5029C116.093 22.2217 115.87 22.0049 115.571 21.8525C115.272 21.7002 114.903 21.624 114.464 21.624C114.054 21.624 113.693 21.6943 113.383 21.835C113.078 21.9756 112.838 22.1602 112.662 22.3887C112.492 22.6172 112.407 22.8633 112.407 23.127H110.781C110.781 22.7871 110.869 22.4502 111.045 22.1162C111.221 21.7822 111.473 21.4805 111.801 21.2109C112.135 20.9355 112.533 20.7188 112.996 20.5605C113.465 20.3965 113.986 20.3145 114.561 20.3145C115.252 20.3145 115.861 20.4316 116.389 20.666C116.922 20.9004 117.338 21.2549 117.637 21.7295C117.941 22.1982 118.094 22.7871 118.094 23.4961V27.9258C118.094 28.2422 118.12 28.5791 118.173 28.9365C118.231 29.2939 118.316 29.6016 118.428 29.8594V30H116.731C116.649 29.8125 116.585 29.5635 116.538 29.2529C116.491 28.9365 116.468 28.6436 116.468 28.374ZM116.749 24.2344L116.767 25.377H115.123C114.66 25.377 114.247 25.415 113.884 25.4912C113.521 25.5615 113.216 25.6699 112.97 25.8164C112.724 25.9629 112.536 26.1475 112.407 26.3701C112.278 26.5869 112.214 26.8418 112.214 27.1348C112.214 27.4336 112.281 27.7061 112.416 27.9521C112.551 28.1982 112.753 28.3945 113.022 28.541C113.298 28.6816 113.635 28.752 114.033 28.752C114.531 28.752 114.971 28.6465 115.352 28.4355C115.732 28.2246 116.034 27.9668 116.257 27.6621C116.485 27.3574 116.608 27.0615 116.626 26.7744L117.32 27.5566C117.279 27.8027 117.168 28.0752 116.986 28.374C116.805 28.6729 116.562 28.96 116.257 29.2354C115.958 29.5049 115.601 29.7305 115.185 29.9121C114.774 30.0879 114.312 30.1758 113.796 30.1758C113.151 30.1758 112.586 30.0498 112.1 29.7979C111.619 29.5459 111.244 29.209 110.975 28.7871C110.711 28.3594 110.579 27.8818 110.579 27.3545C110.579 26.8447 110.679 26.3965 110.878 26.0098C111.077 25.6172 111.364 25.292 111.739 25.0342C112.114 24.7705 112.565 24.5713 113.093 24.4365C113.62 24.3018 114.209 24.2344 114.859 24.2344H116.749ZM122.277 21.9844V30H120.651V20.4902H122.233L122.277 21.9844ZM125.248 20.4375L125.239 21.9492C125.104 21.9199 124.976 21.9023 124.853 21.8965C124.735 21.8848 124.601 21.8789 124.448 21.8789C124.073 21.8789 123.742 21.9375 123.455 22.0547C123.168 22.1719 122.925 22.3359 122.726 22.5469C122.526 22.7578 122.368 23.0098 122.251 23.3027C122.14 23.5898 122.066 23.9062 122.031 24.252L121.574 24.5156C121.574 23.9414 121.63 23.4023 121.741 22.8984C121.858 22.3945 122.037 21.9492 122.277 21.5625C122.518 21.1699 122.822 20.8652 123.191 20.6484C123.566 20.4258 124.012 20.3145 124.527 20.3145C124.645 20.3145 124.779 20.3291 124.932 20.3584C125.084 20.3818 125.189 20.4082 125.248 20.4375Z" fill="#B3B3B2"/>
</svg>
