<svg width="159" height="63" viewBox="0 0 159 63" fill="none" xmlns="http://www.w3.org/2000/svg">
<rect x="0.5" y="0.5" width="158" height="62" rx="11.5" fill="#1F1F1F"/>
<rect x="0.5" y="0.5" width="158" height="62" rx="11.5" stroke="#404040" stroke-dasharray="16 6"/>
<path d="M32.3057 34.7656C32.3057 34.4668 32.2588 34.2031 32.165 33.9746C32.0771 33.7402 31.9189 33.5293 31.6904 33.3418C31.4678 33.1543 31.1572 32.9756 30.7588 32.8057C30.3662 32.6357 29.8682 32.4629 29.2646 32.2871C28.6318 32.0996 28.0605 31.8916 27.5508 31.6631C27.041 31.4287 26.6045 31.1621 26.2412 30.8633C25.8779 30.5645 25.5996 30.2217 25.4062 29.835C25.2129 29.4482 25.1162 29.0059 25.1162 28.5078C25.1162 28.0098 25.2188 27.5498 25.4238 27.1279C25.6289 26.7061 25.9219 26.3398 26.3027 26.0293C26.6895 25.7129 27.1494 25.4668 27.6826 25.291C28.2158 25.1152 28.8105 25.0273 29.4668 25.0273C30.4277 25.0273 31.2422 25.2119 31.9102 25.5811C32.584 25.9443 33.0967 26.4219 33.4482 27.0137C33.7998 27.5996 33.9756 28.2266 33.9756 28.8945H32.2881C32.2881 28.4141 32.1855 27.9893 31.9805 27.6201C31.7754 27.2451 31.4648 26.9521 31.0488 26.7412C30.6328 26.5244 30.1055 26.416 29.4668 26.416C28.8633 26.416 28.3652 26.5068 27.9727 26.6885C27.5801 26.8701 27.2871 27.1162 27.0938 27.4268C26.9062 27.7373 26.8125 28.0918 26.8125 28.4902C26.8125 28.7598 26.8682 29.0059 26.9795 29.2285C27.0967 29.4453 27.2754 29.6475 27.5156 29.835C27.7617 30.0225 28.0723 30.1953 28.4473 30.3535C28.8281 30.5117 29.2822 30.6641 29.8096 30.8105C30.5361 31.0156 31.1631 31.2441 31.6904 31.4961C32.2178 31.748 32.6514 32.0322 32.9912 32.3486C33.3369 32.6592 33.5918 33.0137 33.7559 33.4121C33.9258 33.8047 34.0107 34.25 34.0107 34.748C34.0107 35.2695 33.9053 35.7412 33.6943 36.1631C33.4834 36.585 33.1816 36.9453 32.7891 37.2441C32.3965 37.543 31.9248 37.7744 31.374 37.9385C30.8291 38.0967 30.2197 38.1758 29.5459 38.1758C28.9541 38.1758 28.3711 38.0938 27.7969 37.9297C27.2285 37.7656 26.71 37.5195 26.2412 37.1914C25.7783 36.8633 25.4062 36.459 25.125 35.9785C24.8496 35.4922 24.7119 34.9297 24.7119 34.291H26.3994C26.3994 34.7305 26.4844 35.1084 26.6543 35.4248C26.8242 35.7354 27.0557 35.9932 27.3486 36.1982C27.6475 36.4033 27.9844 36.5557 28.3594 36.6553C28.7402 36.749 29.1357 36.7959 29.5459 36.7959C30.1377 36.7959 30.6387 36.7139 31.0488 36.5498C31.459 36.3857 31.7695 36.1514 31.9805 35.8467C32.1973 35.542 32.3057 35.1816 32.3057 34.7656ZM37.5527 24.5V38H35.9268V24.5H37.5527ZM37.166 32.8848L36.4893 32.8584C36.4951 32.208 36.5918 31.6074 36.7793 31.0566C36.9668 30.5 37.2305 30.0166 37.5703 29.6064C37.9102 29.1963 38.3145 28.8799 38.7832 28.6572C39.2578 28.4287 39.7822 28.3145 40.3564 28.3145C40.8252 28.3145 41.2471 28.3789 41.6221 28.5078C41.9971 28.6309 42.3164 28.8301 42.5801 29.1055C42.8496 29.3809 43.0547 29.7383 43.1953 30.1777C43.3359 30.6113 43.4062 31.1416 43.4062 31.7686V38H41.7715V31.751C41.7715 31.2529 41.6982 30.8545 41.5518 30.5557C41.4053 30.251 41.1914 30.0312 40.9102 29.8965C40.6289 29.7559 40.2832 29.6855 39.873 29.6855C39.4688 29.6855 39.0996 29.7705 38.7656 29.9404C38.4375 30.1104 38.1533 30.3447 37.9131 30.6436C37.6787 30.9424 37.4941 31.2852 37.3594 31.6719C37.2305 32.0527 37.166 32.457 37.166 32.8848ZM45.4102 33.3506V33.1484C45.4102 32.4629 45.5098 31.8271 45.709 31.2412C45.9082 30.6494 46.1953 30.1367 46.5703 29.7031C46.9453 29.2637 47.3994 28.9238 47.9326 28.6836C48.4658 28.4375 49.0635 28.3145 49.7256 28.3145C50.3936 28.3145 50.9941 28.4375 51.5273 28.6836C52.0664 28.9238 52.5234 29.2637 52.8984 29.7031C53.2793 30.1367 53.5693 30.6494 53.7686 31.2412C53.9678 31.8271 54.0674 32.4629 54.0674 33.1484V33.3506C54.0674 34.0361 53.9678 34.6719 53.7686 35.2578C53.5693 35.8438 53.2793 36.3564 52.8984 36.7959C52.5234 37.2295 52.0693 37.5693 51.5361 37.8154C51.0088 38.0557 50.4111 38.1758 49.7432 38.1758C49.0752 38.1758 48.4746 38.0557 47.9414 37.8154C47.4082 37.5693 46.9512 37.2295 46.5703 36.7959C46.1953 36.3564 45.9082 35.8438 45.709 35.2578C45.5098 34.6719 45.4102 34.0361 45.4102 33.3506ZM47.0361 33.1484V33.3506C47.0361 33.8252 47.0918 34.2734 47.2031 34.6953C47.3145 35.1113 47.4814 35.4805 47.7041 35.8027C47.9326 36.125 48.2168 36.3799 48.5566 36.5674C48.8965 36.749 49.292 36.8398 49.7432 36.8398C50.1885 36.8398 50.5781 36.749 50.9121 36.5674C51.252 36.3799 51.5332 36.125 51.7559 35.8027C51.9785 35.4805 52.1455 35.1113 52.2568 34.6953C52.374 34.2734 52.4326 33.8252 52.4326 33.3506V33.1484C52.4326 32.6797 52.374 32.2373 52.2568 31.8213C52.1455 31.3994 51.9756 31.0273 51.7471 30.7051C51.5244 30.377 51.2432 30.1191 50.9033 29.9316C50.5693 29.7441 50.1768 29.6504 49.7256 29.6504C49.2803 29.6504 48.8877 29.7441 48.5479 29.9316C48.2139 30.1191 47.9326 30.377 47.7041 30.7051C47.4814 31.0273 47.3145 31.3994 47.2031 31.8213C47.0918 32.2373 47.0361 32.6797 47.0361 33.1484ZM57.7324 30.3184V41.6562H56.0977V28.4902H57.5918L57.7324 30.3184ZM64.1396 33.166V33.3506C64.1396 34.042 64.0576 34.6836 63.8936 35.2754C63.7295 35.8613 63.4893 36.3711 63.1729 36.8047C62.8623 37.2383 62.4785 37.5752 62.0215 37.8154C61.5645 38.0557 61.04 38.1758 60.4482 38.1758C59.8447 38.1758 59.3115 38.0762 58.8486 37.877C58.3857 37.6777 57.9932 37.3877 57.6709 37.0068C57.3486 36.626 57.0908 36.1689 56.8975 35.6357C56.71 35.1025 56.5811 34.502 56.5107 33.834V32.8496C56.5811 32.1465 56.7129 31.5166 56.9062 30.96C57.0996 30.4033 57.3545 29.9287 57.6709 29.5361C57.9932 29.1377 58.3828 28.8359 58.8398 28.6309C59.2969 28.4199 59.8242 28.3145 60.4219 28.3145C61.0195 28.3145 61.5498 28.4316 62.0127 28.666C62.4756 28.8945 62.8652 29.2227 63.1816 29.6504C63.498 30.0781 63.7354 30.5908 63.8936 31.1885C64.0576 31.7803 64.1396 32.4395 64.1396 33.166ZM62.5049 33.3506V33.166C62.5049 32.6914 62.4551 32.2461 62.3555 31.8301C62.2559 31.4082 62.1006 31.0391 61.8896 30.7227C61.6846 30.4004 61.4209 30.1484 61.0986 29.9668C60.7764 29.7793 60.3926 29.6855 59.9473 29.6855C59.5371 29.6855 59.1797 29.7559 58.875 29.8965C58.5762 30.0371 58.3213 30.2275 58.1104 30.4678C57.8994 30.7021 57.7266 30.9717 57.5918 31.2764C57.4629 31.5752 57.3662 31.8857 57.3018 32.208V34.4844C57.4189 34.8945 57.583 35.2812 57.7939 35.6445C58.0049 36.002 58.2861 36.292 58.6377 36.5146C58.9893 36.7314 59.4316 36.8398 59.9648 36.8398C60.4043 36.8398 60.7822 36.749 61.0986 36.5674C61.4209 36.3799 61.6846 36.125 61.8896 35.8027C62.1006 35.4805 62.2559 35.1113 62.3555 34.6953C62.4551 34.2734 62.5049 33.8252 62.5049 33.3506ZM80.7686 25.2031V38H79.0635L72.6211 28.1299V38H70.9248V25.2031H72.6211L79.0898 35.0996V25.2031H80.7686ZM83.0977 33.3506V33.1484C83.0977 32.4629 83.1973 31.8271 83.3965 31.2412C83.5957 30.6494 83.8828 30.1367 84.2578 29.7031C84.6328 29.2637 85.0869 28.9238 85.6201 28.6836C86.1533 28.4375 86.751 28.3145 87.4131 28.3145C88.0811 28.3145 88.6816 28.4375 89.2148 28.6836C89.7539 28.9238 90.2109 29.2637 90.5859 29.7031C90.9668 30.1367 91.2568 30.6494 91.4561 31.2412C91.6553 31.8271 91.7549 32.4629 91.7549 33.1484V33.3506C91.7549 34.0361 91.6553 34.6719 91.4561 35.2578C91.2568 35.8438 90.9668 36.3564 90.5859 36.7959C90.2109 37.2295 89.7568 37.5693 89.2236 37.8154C88.6963 38.0557 88.0986 38.1758 87.4307 38.1758C86.7627 38.1758 86.1621 38.0557 85.6289 37.8154C85.0957 37.5693 84.6387 37.2295 84.2578 36.7959C83.8828 36.3564 83.5957 35.8438 83.3965 35.2578C83.1973 34.6719 83.0977 34.0361 83.0977 33.3506ZM84.7236 33.1484V33.3506C84.7236 33.8252 84.7793 34.2734 84.8906 34.6953C85.002 35.1113 85.1689 35.4805 85.3916 35.8027C85.6201 36.125 85.9043 36.3799 86.2441 36.5674C86.584 36.749 86.9795 36.8398 87.4307 36.8398C87.876 36.8398 88.2656 36.749 88.5996 36.5674C88.9395 36.3799 89.2207 36.125 89.4434 35.8027C89.666 35.4805 89.833 35.1113 89.9443 34.6953C90.0615 34.2734 90.1201 33.8252 90.1201 33.3506V33.1484C90.1201 32.6797 90.0615 32.2373 89.9443 31.8213C89.833 31.3994 89.6631 31.0273 89.4346 30.7051C89.2119 30.377 88.9307 30.1191 88.5908 29.9316C88.2568 29.7441 87.8643 29.6504 87.4131 29.6504C86.9678 29.6504 86.5752 29.7441 86.2354 29.9316C85.9014 30.1191 85.6201 30.377 85.3916 30.7051C85.1689 31.0273 85.002 31.3994 84.8906 31.8213C84.7793 32.2373 84.7236 32.6797 84.7236 33.1484ZM96.2021 36.3125L98.6455 28.4902H99.7178L99.5068 30.0459L97.0195 38H95.9736L96.2021 36.3125ZM94.5586 28.4902L96.6416 36.4004L96.791 38H95.6924L92.9326 28.4902H94.5586ZM102.056 36.3389L104.042 28.4902H105.659L102.899 38H101.81L102.056 36.3389ZM99.9551 28.4902L102.346 36.1807L102.618 38H101.581L99.0234 30.0283L98.8125 28.4902H99.9551Z" fill="white"/>
<path fill-rule="evenodd" clip-rule="evenodd" d="M119.25 21.75L130.5 21.75C130.699 21.75 130.89 21.829 131.03 21.9697C131.171 22.1103 131.25 22.3011 131.25 22.5V33.75C131.25 34.1642 130.914 34.5 130.5 34.5C130.086 34.5 129.75 34.1642 129.75 33.75V24.3107L116.03 38.0303C115.737 38.3232 115.263 38.3232 114.97 38.0303C114.677 37.7374 114.677 37.2626 114.97 36.9697L128.689 23.25L119.25 23.25C118.836 23.25 118.5 22.9142 118.5 22.5C118.5 22.0858 118.836 21.75 119.25 21.75Z" fill="white"/>
<path d="M17 0.500145L12.5 0.500145C5.87258 0.500145 0.5 5.87272 0.5 12.5001V16.9989" stroke="#AE9B84"/>
<path d="M142 0.5L146.5 0.5C153.127 0.5 158.5 5.87258 158.5 12.5V16.9988" stroke="#AE9B84"/>
<path d="M158.5 45.999L158.5 50.499C158.5 57.1264 153.127 62.499 146.5 62.499L142.001 62.499" stroke="#AE9B84"/>
<path d="M0.500976 45.999L0.500976 50.499C0.500977 57.1264 5.87356 62.499 12.501 62.499L16.9997 62.499" stroke="#AE9B84"/>
</svg>
