<svg width="281" height="360" viewBox="0 0 281 360" fill="none" xmlns="http://www.w3.org/2000/svg">
<mask id="mask0_160_2720" style="mask-type:luminance" maskUnits="userSpaceOnUse" x="0" y="-86" width="446" height="446">
<path d="M446 -86H0V360H446V-86Z" fill="white"/>
</mask>
<g mask="url(#mask0_160_2720)">
<path fill-rule="evenodd" clip-rule="evenodd" d="M238.929 -86H207.071V55.0544L154.231 -75.729L124.694 -63.7951L178.903 70.3763L76.5784 -31.9481L54.0521 -9.42158L152.125 88.6516L25.0297 33.1224L12.2752 62.3148L146.757 121.071H0V152.929H146.757L12.2753 211.685L25.0297 240.878L152.125 185.349L54.0521 283.422L76.5784 305.947L178.903 203.624L124.694 337.796L154.231 349.729L207.071 218.946V360H238.929V218.946L291.769 349.729L321.305 337.796L267.098 203.624L369.422 305.947L391.947 283.422L293.874 185.349L420.97 240.878L433.724 211.685L299.244 152.929H446V121.071H299.241L433.724 62.3148L420.97 33.1224L293.874 88.6516L391.947 -9.4218L369.422 -31.9481L267.098 70.3761L321.305 -63.7951L291.769 -75.729L238.929 55.0544V-86Z" fill="#C2B4A3"/>
</g>
</svg>
