<svg width="173" height="191" viewBox="0 0 173 191" fill="none" xmlns="http://www.w3.org/2000/svg">
<path d="M92.4979 82.5143C92.6963 82.6743 93.18 83.0582 93.5465 83.3186C94.5789 84.0521 96.2911 85.1319 98.7388 86.2467C103.608 88.4644 111.524 90.8837 123 90.8837C134.476 90.8837 142.392 88.4644 147.261 86.2467C149.709 85.1319 151.421 84.0522 152.453 83.3186C152.97 82.9515 153.318 82.6705 153.502 82.5143C153.581 82.4478 153.63 82.4039 153.65 82.3859L153.658 82.3788C156.736 79.429 161.54 79.5783 164.442 82.7351C167.37 85.9207 167.251 90.9627 164.177 93.9967L164.164 94.0096L164.149 94.0236L164.118 94.0544L164.042 94.1274L163.838 94.3168C163.68 94.4617 163.476 94.6431 163.225 94.8554C162.723 95.2801 162.033 95.8288 161.148 96.4574C159.378 97.7152 156.83 99.2906 153.448 100.831C146.658 103.924 136.637 106.815 123 106.815C109.363 106.815 99.3422 103.924 92.5519 100.831C89.1699 99.2906 86.6219 97.7152 84.8515 96.4574C83.9668 95.8288 83.2772 95.2801 82.7751 94.8554C82.5378 94.6547 82.0192 94.1827 81.8991 94.0702L81.8824 94.0544C78.8079 91.0205 78.6301 85.9207 81.5582 82.7351C84.4621 79.5758 89.4197 79.5572 92.4979 82.5143ZM92.4979 82.5143C92.4172 82.4493 92.5512 82.5595 92.4979 82.5143ZM92.4979 82.5143C92.4192 82.4478 92.5178 82.5324 92.4979 82.5143ZM215.25 66.9872V10.8984C215.25 -12.3599 215.25 -23.9891 208.001 -30.3523C200.751 -36.7154 189.671 -34.8019 167.51 -30.9748L156.702 -29.1083C139.889 -26.2049 131.483 -24.7532 123 -24.7532C114.517 -24.7532 106.111 -26.2049 89.2982 -29.1083L78.4904 -30.9748C56.3292 -34.8019 45.2486 -36.7154 37.9993 -30.3523C30.75 -23.9891 30.75 -12.3599 30.75 10.8984V66.9872C30.75 125.298 74.1994 153.595 101.46 165.611C108.855 168.87 112.553 170.5 123 170.5C133.447 170.5 137.145 168.87 144.54 165.611C171.801 153.595 215.25 125.298 215.25 66.9872ZM87.125 32.4701C79.507 32.4701 74.7673 36.0616 73.5017 38.6859C71.6039 42.6211 66.9866 44.2171 63.1887 42.2507C59.3908 40.2843 57.8504 35.5 59.7483 31.5647C64.4507 21.8139 75.8142 16.5392 87.125 16.5392C98.4358 16.5392 109.799 21.8139 114.502 31.5647C116.4 35.5 114.859 40.2843 111.061 42.2507C107.263 44.2171 102.646 42.6211 100.748 38.6859C99.4827 36.0616 94.743 32.4701 87.125 32.4701ZM145.252 38.6859C146.517 36.0616 151.257 32.4701 158.875 32.4701C166.493 32.4701 171.233 36.0616 172.498 38.6859C174.396 42.6211 179.013 44.2171 182.811 42.2507C186.609 40.2843 188.15 35.5 186.252 31.5647C181.549 21.8139 170.186 16.5392 158.875 16.5392C147.564 16.5392 136.201 21.8139 131.498 31.5647C129.6 35.5 131.141 40.2843 134.939 42.2507C138.737 44.2171 143.354 42.6211 145.252 38.6859Z" stroke="#262626" stroke-width="2" stroke-dasharray="16 6"/>
</svg>
