<svg width="173" height="191" viewBox="0 0 173 191" fill="none" xmlns="http://www.w3.org/2000/svg">
<path d="M93.8199 0.435851C106.803 -22.8547 113.295 -34.5 123 -34.5C132.705 -34.5 139.197 -22.8547 152.18 0.435832L155.539 6.46138C159.228 13.0798 161.073 16.3891 163.949 18.5725C166.826 20.756 170.408 21.5665 177.572 23.1875L184.095 24.6633C209.306 30.3677 221.912 33.2199 224.911 42.8642C227.911 52.5086 219.317 62.558 202.129 82.6567L197.682 87.8565C192.798 93.568 190.356 96.4237 189.257 99.9566C188.159 103.49 188.528 107.3 189.266 114.92L189.939 121.858C192.537 148.674 193.837 162.082 185.985 168.042C178.133 174.003 166.33 168.568 142.724 157.7L136.617 154.888C129.909 151.799 126.555 150.255 123 150.255C119.445 150.255 116.091 151.799 109.383 154.888L103.276 157.699C79.6699 168.568 67.8671 174.003 60.0153 168.042C52.1635 162.082 53.4628 148.674 56.0613 121.858L56.7336 114.92C57.472 107.3 57.8412 103.49 56.7426 99.9566C55.644 96.4237 53.2019 93.568 48.3177 87.8565L43.871 82.6567C26.6833 62.558 18.0895 52.5086 21.0886 42.8642C24.0877 33.2199 36.6935 30.3677 61.9052 24.6633L68.4278 23.1875C75.5922 21.5665 79.1744 20.756 82.0507 18.5725C84.9269 16.3891 86.7716 13.0798 90.461 6.4614L93.8199 0.435851Z" stroke="#262626" stroke-width="2" stroke-dasharray="16 6"/>
</svg>
