<svg width="193" height="211" viewBox="0 0 193 211" fill="none" xmlns="http://www.w3.org/2000/svg">
<path d="M39.4064 4.4064C27.8645 15.9483 27.8645 34.6613 39.4064 46.2032L55.6807 62.4775C55.8029 62.3362 55.9311 62.1983 56.0653 62.0641L97.0653 21.0641C97.1991 20.9303 97.3366 20.8025 97.4774 20.6806L81.2032 4.4064C69.6613 -7.13547 50.9483 -7.13547 39.4064 4.4064Z" stroke="#262626" stroke-width="2" stroke-dasharray="16 6"/>
<path d="M108.321 31.5237C108.199 31.6646 108.071 31.8021 107.937 31.9359L66.937 72.9359C66.8029 73.0701 66.6649 73.1983 66.5236 73.3204L164.797 171.594C176.339 183.135 195.052 183.135 206.594 171.594C218.135 160.052 218.135 141.339 206.594 129.797L108.321 31.5237Z" stroke="#262626" stroke-width="2" stroke-dasharray="16 6"/>
<path d="M165.025 -11.3513C166.675 -15.5496 172.595 -15.5496 174.244 -11.3513L178.656 -0.124639C179.159 1.15711 180.17 2.17171 181.447 2.67723L192.633 7.10496C196.815 8.76073 196.815 14.7023 192.633 16.3581L181.447 20.7858C180.17 21.2913 179.159 22.3059 178.656 23.5877L174.244 34.8143C172.595 39.0126 166.675 39.0126 165.025 34.8143L160.614 23.5877C160.11 22.3059 159.099 21.2913 157.822 20.7858L146.637 16.3581C142.454 14.7023 142.454 8.76073 146.637 7.10496L157.822 2.67723C159.099 2.17171 160.11 1.15711 160.614 -0.124639L165.025 -11.3513Z" stroke="#262626" stroke-width="2" stroke-dasharray="16 6"/>
<path d="M204.664 58.5769C206.313 54.3787 212.233 54.3787 213.883 58.5769L215.491 62.6702C215.995 63.952 217.006 64.9666 218.283 65.4721L222.361 67.0865C226.544 68.7422 226.544 74.6838 222.361 76.3395L218.283 77.9539C217.006 78.4594 215.995 79.474 215.491 80.7558L213.883 84.8491C212.233 89.0473 206.313 89.0473 204.664 84.8491L203.055 80.7558C202.552 79.474 201.541 78.4594 200.264 77.9539L196.185 76.3395C192.003 74.6838 192.003 68.7422 196.185 67.0865L200.264 65.4721C201.541 64.9666 202.552 63.952 203.055 62.6702L204.664 58.5769Z" stroke="#262626" stroke-width="2" stroke-dasharray="16 6"/>
<path d="M52.6153 121.899C54.2649 117.7 60.1846 117.7 61.8343 121.899L63.4427 125.992C63.9464 127.274 64.9572 128.288 66.2342 128.794L70.3125 130.408C74.4952 132.064 74.4952 138.006 70.3125 139.661L66.2342 141.276C64.9572 141.781 63.9464 142.796 63.4427 144.078L61.8343 148.171C60.1846 152.369 54.2649 152.369 52.6153 148.171L51.0068 144.078C50.5032 142.796 49.4923 141.781 48.2153 141.276L44.1371 139.661C39.9543 138.006 39.9543 132.064 44.1371 130.408L48.2153 128.794C49.4923 128.288 50.5032 127.274 51.0068 125.992L52.6153 121.899Z" stroke="#262626" stroke-width="2" stroke-dasharray="16 6"/>
</svg>
