<svg width="173" height="191" viewBox="0 0 173 191" fill="none" xmlns="http://www.w3.org/2000/svg">
<path d="M51.5933 55.5305L52.5218 55.1592L52.0955 54.0933L51.0981 54.6617L51.5933 55.5305ZM143.016 101.243L144.008 101.119L143.864 99.9796L142.756 100.278L143.016 101.243ZM157.713 95.61L157.26 94.7181L156.6 95.0532L156.728 95.783L157.713 95.61ZM194.407 55.5306L194.902 54.6618L193.904 54.0934L193.478 55.1593L194.407 55.5306ZM135.963 163.752L135.261 163.04L134.276 164.01L135.506 164.642L135.963 163.752ZM123 87.5C120.075 87.5 117.198 87.2924 114.385 86.8914L114.102 88.8714C117.009 89.2857 119.98 89.5 123 89.5V87.5ZM108.033 85.6346C102.369 84.1932 97.024 81.9527 92.1251 79.0399L91.103 80.7589C96.164 83.7682 101.687 86.0834 107.539 87.5728L108.033 85.6346ZM86.7429 75.4367C82.1279 71.9765 78.0235 67.8721 74.5633 63.2571L72.9631 64.4569C76.5371 69.2237 80.7763 73.4629 85.5431 77.0369L86.7429 75.4367ZM70.9601 57.8749C68.0473 52.976 65.8068 47.6311 64.3654 41.9674L62.4272 42.4607C63.9166 48.3133 66.2318 53.836 69.2411 58.897L70.9601 57.8749ZM63.1086 35.6154C62.7076 32.8018 62.5 29.9254 62.5 27H60.5C60.5 30.0202 60.7143 32.9909 61.1286 35.8976L63.1086 35.6154ZM62.5 27C62.5 24.0746 62.7076 21.1982 63.1086 18.3846L61.1286 18.1024C60.7143 21.0091 60.5 23.9798 60.5 27H62.5ZM64.3654 12.0326C65.8068 6.36886 68.0473 1.02404 70.9601 -3.87488L69.2411 -4.89703C66.2318 0.164028 63.9166 5.68665 62.4272 11.5393L64.3654 12.0326ZM74.5633 -9.25711C78.0235 -13.8721 82.1279 -17.9765 86.7429 -21.4367L85.5431 -23.0369C80.7763 -19.4629 76.5371 -15.2237 72.9631 -10.4569L74.5633 -9.25711ZM92.1251 -25.0399C97.024 -27.9527 102.369 -30.1932 108.033 -31.6346L107.539 -33.5728C101.687 -32.0834 96.164 -29.7682 91.103 -26.7589L92.1251 -25.0399ZM114.385 -32.8914C117.198 -33.2924 120.075 -33.5 123 -33.5V-35.5C119.98 -35.5 117.009 -35.2857 114.102 -34.8714L114.385 -32.8914ZM123 -33.5C125.925 -33.5 128.802 -33.2924 131.615 -32.8914L131.898 -34.8714C128.991 -35.2857 126.02 -35.5 123 -35.5V-33.5ZM137.967 -31.6346C143.631 -30.1932 148.976 -27.9527 153.875 -25.0399L154.897 -26.7589C149.836 -29.7682 144.313 -32.0834 138.461 -33.5728L137.967 -31.6346ZM159.257 -21.4367C163.872 -17.9765 167.977 -13.8721 171.437 -9.25711L173.037 -10.4569C169.463 -15.2237 165.224 -19.4629 160.457 -23.0369L159.257 -21.4367ZM175.04 -3.87489C177.953 1.02404 180.193 6.36886 181.635 12.0326L183.573 11.5393C182.083 5.68665 179.768 0.164028 176.759 -4.89704L175.04 -3.87489ZM182.891 18.3846C183.292 21.1982 183.5 24.0746 183.5 27H185.5C185.5 23.9798 185.286 21.0091 184.871 18.1024L182.891 18.3846ZM183.5 27C183.5 29.9255 183.292 32.8018 182.891 35.6154L184.871 35.8976C185.286 32.9909 185.5 30.0202 185.5 27H183.5ZM181.635 41.9674C180.193 47.6311 177.953 52.976 175.04 57.8749L176.759 58.897C179.768 53.836 182.083 48.3133 183.573 42.4607L181.635 41.9674ZM171.437 63.2571C167.977 67.8721 163.872 71.9765 159.257 75.4367L160.457 77.0369C165.224 73.4629 169.463 69.2237 173.037 64.4569L171.437 63.2571ZM153.875 79.0399C148.976 81.9527 143.631 84.1932 137.967 85.6346L138.461 87.5728C144.313 86.0834 149.836 83.7682 154.897 80.7589L153.875 79.0399ZM131.615 86.8914C128.802 87.2924 125.925 87.5 123 87.5V89.5C126.02 89.5 128.991 89.2857 131.898 88.8714L131.615 86.8914ZM21.5 109C21.5 106.387 21.6655 103.814 21.9866 101.29L20.0026 101.037C19.6709 103.645 19.5 106.303 19.5 109H21.5ZM22.9925 95.5841C24.1465 90.4865 25.9442 85.6332 28.2958 81.1138L26.5216 80.1906C24.0919 84.86 22.2343 89.875 21.0418 95.1425L22.9925 95.5841ZM31.2135 76.1084C34.0269 71.7733 37.3805 67.8209 41.1789 64.3465L39.8291 62.8707C35.906 66.4591 32.4421 70.5415 29.5359 75.0196L31.2135 76.1084ZM45.6359 60.6437C47.6892 59.0972 49.8439 57.6785 52.0884 56.3993L51.0981 54.6617C48.7793 55.9832 46.5535 57.4487 44.4327 59.0462L45.6359 60.6437ZM50.6648 55.9018C51.7129 58.5228 52.8993 61.0734 54.215 63.5447L55.9804 62.6048C54.6986 60.1972 53.5428 57.7124 52.5218 55.1592L50.6648 55.9018ZM57.4099 68.9991C60.454 73.7434 63.9986 78.1355 67.9692 82.1011L69.3825 80.686C65.5132 76.8216 62.0592 72.5417 59.0932 67.9191L57.4099 68.9991ZM72.6179 86.3835C76.8878 90.0097 81.5541 93.1838 86.5429 95.8316L87.4805 94.065C82.6202 91.4854 78.0734 88.3927 73.9125 84.8591L72.6179 86.3835ZM92.2423 98.565C97.3471 100.762 102.734 102.429 108.333 103.496L108.708 101.531C103.253 100.492 98.0057 98.8679 93.0329 96.7278L92.2423 98.565ZM114.585 104.426C117.349 104.723 120.157 104.875 123 104.875V102.875C120.229 102.875 117.492 102.726 114.798 102.437L114.585 104.426ZM123 104.875C125.511 104.875 127.995 104.756 130.446 104.524L130.257 102.533C127.869 102.759 125.448 102.875 123 102.875V104.875ZM135.991 103.796C138.46 103.381 140.89 102.851 143.275 102.209L142.756 100.278C140.433 100.903 138.065 101.42 135.659 101.824L135.991 103.796ZM142.023 101.368C142.139 102.284 142.233 103.207 142.307 104.136L144.301 103.977C144.225 103.018 144.127 102.065 144.008 101.119L142.023 101.368ZM142.437 106.218C142.479 107.14 142.5 108.068 142.5 109H144.5C144.5 108.037 144.478 107.08 144.435 106.128L142.437 106.218ZM142.5 109C142.5 111.925 142.292 114.802 141.891 117.615L143.871 117.898C144.286 114.991 144.5 112.02 144.5 109H142.5ZM140.635 123.967C139.193 129.631 136.953 134.976 134.04 139.875L135.759 140.897C138.768 135.836 141.083 130.313 142.573 124.461L140.635 123.967ZM130.437 145.257C126.977 149.872 122.872 153.977 118.257 157.437L119.457 159.037C124.224 155.463 128.463 151.224 132.037 146.457L130.437 145.257ZM112.875 161.04C107.976 163.953 102.631 166.193 96.9674 167.635L97.4607 169.573C103.313 168.083 108.836 165.768 113.897 162.759L112.875 161.04ZM90.6154 168.891C87.8018 169.292 84.9254 169.5 82 169.5V171.5C85.0202 171.5 87.9909 171.286 90.8976 170.871L90.6154 168.891ZM82 169.5C79.0746 169.5 76.1982 169.292 73.3846 168.891L73.1024 170.871C76.0091 171.286 78.9798 171.5 82 171.5V169.5ZM67.0326 167.635C61.3689 166.193 56.024 163.953 51.1251 161.04L50.103 162.759C55.164 165.768 60.6867 168.083 66.5393 169.573L67.0326 167.635ZM45.7429 157.437C41.1279 153.977 37.0235 149.872 33.5633 145.257L31.9631 146.457C35.5371 151.224 39.7763 155.463 44.5431 159.037L45.7429 157.437ZM29.9601 139.875C27.0473 134.976 24.8068 129.631 23.3654 123.967L21.4272 124.461C22.9166 130.313 25.2318 135.836 28.2411 140.897L29.9601 139.875ZM22.1086 117.615C21.7076 114.802 21.5 111.925 21.5 109H19.5C19.5 112.02 19.7143 114.991 20.1286 117.898L22.1086 117.615ZM156.728 95.783C157.005 97.3602 157.233 98.9542 157.411 100.563L159.399 100.344C159.216 98.692 158.982 97.0559 158.698 95.4371L156.728 95.783ZM157.724 104.172C157.824 105.768 157.875 107.378 157.875 109H159.875C159.875 107.336 159.823 105.685 159.72 104.047L157.724 104.172ZM157.875 109C157.875 111.457 157.758 113.886 157.53 116.282L159.521 116.472C159.755 114.013 159.875 111.52 159.875 109H157.875ZM156.816 121.703C155.998 126.56 154.717 131.26 153.022 135.757L154.894 136.462C156.634 131.846 157.948 127.021 158.788 122.035L156.816 121.703ZM150.91 140.799C148.859 145.236 146.392 149.442 143.559 153.366L145.18 154.537C148.088 150.509 150.62 146.193 152.726 141.638L150.91 140.799ZM140.202 157.681C138.64 159.546 136.991 161.334 135.261 163.04L136.665 164.464C138.441 162.714 140.133 160.878 141.735 158.965L140.202 157.681ZM135.506 164.642C138.675 166.267 142.001 167.631 145.455 168.702L146.047 166.792C142.705 165.755 139.486 164.436 136.419 162.862L135.506 164.642ZM153.295 170.587C156.774 171.187 160.351 171.5 164 171.5V169.5C160.465 169.5 157.002 169.197 153.635 168.616L153.295 170.587ZM164 171.5C167.02 171.5 169.991 171.286 172.897 170.871L172.615 168.891C169.802 169.292 166.925 169.5 164 169.5V171.5ZM179.46 169.573C185.313 168.083 190.836 165.768 195.897 162.759L194.875 161.04C189.976 163.953 184.631 166.193 178.967 167.635L179.46 169.573ZM201.457 159.037C206.223 155.463 210.463 151.224 214.037 146.457L212.436 145.257C208.976 149.872 204.872 153.976 200.257 157.437L201.457 159.037ZM217.759 140.897C220.768 135.836 223.083 130.313 224.573 124.461L222.634 123.967C221.193 129.631 218.952 134.976 216.04 139.875L217.759 140.897ZM225.871 117.898C226.285 114.991 226.5 112.02 226.5 109H224.5C224.5 111.925 224.292 114.802 223.891 117.615L225.871 117.898ZM226.5 109C226.5 106.303 226.329 103.645 225.997 101.037L224.013 101.29C224.334 103.814 224.5 106.387 224.5 109H226.5ZM224.958 95.1425C223.765 89.8751 221.908 84.8601 219.478 80.1907L217.704 81.1138C220.056 85.6332 221.853 90.4866 223.007 95.5841L224.958 95.1425ZM216.464 75.0197C213.558 70.5416 210.094 66.4593 206.171 62.8709L204.821 64.3466C208.619 67.821 211.973 71.7734 214.786 76.1084L216.464 75.0197ZM201.567 59.0463C199.446 57.4489 197.221 55.9833 194.902 54.6618L193.912 56.3995C196.156 57.6786 198.311 59.0973 200.364 60.6438L201.567 59.0463ZM193.478 55.1593C192.653 57.2228 191.74 59.2416 190.743 61.2111L192.528 62.1141C193.551 60.0925 194.488 58.0202 195.335 55.902L193.478 55.1593ZM188.349 65.5796C186.086 69.404 183.497 73.0127 180.62 76.3674L182.138 77.6694C185.091 74.2268 187.748 70.5232 190.07 66.598L188.349 65.5796ZM177.255 80.0414C174.161 83.2061 170.792 86.101 167.187 88.6878L168.353 90.3127C172.053 87.658 175.51 84.6871 178.685 81.4397L177.255 80.0414ZM163.047 91.4582C161.171 92.626 159.241 93.7142 157.26 94.7181L158.165 96.502C160.197 95.4716 162.179 94.3546 164.104 93.156L163.047 91.4582Z" fill="#262626"/>
</svg>
