<svg width="173" height="191" viewBox="0 0 173 191" fill="none" xmlns="http://www.w3.org/2000/svg">
<path d="M36.1908 1.8359C36.2246 2.59941 36.2579 3.35491 36.2876 4.10124C36.9786 21.5082 38.8482 41.8626 44.4523 60.8068L36.3162 56.2867C28.604 52.002 24.7478 49.8596 22.6241 46.2505C20.5004 42.6413 20.5003 38.23 20.5 29.4074L20.5 28.664C20.4997 17.967 20.4996 12.6185 23.4017 8.59183C25.7404 5.34705 29.4893 3.61871 36.1672 1.29981M36.1908 1.8359C36.1829 1.65764 36.175 1.47893 36.1672 1.29981M36.1908 1.8359L36.1672 1.29981M209.812 1.83589C209.779 2.59941 209.745 3.35491 209.716 4.10124C209.025 21.5075 207.155 41.8608 201.552 60.8044L209.683 56.2867C217.395 52.002 221.252 49.8596 223.375 46.2505C225.499 42.6413 225.499 38.23 225.499 29.4074L225.499 28.664C225.5 17.967 225.5 12.6185 222.598 8.59183C220.259 5.34765 216.511 3.61934 209.836 1.30108M209.812 1.83589C209.82 1.65805 209.828 1.47978 209.836 1.30108M209.812 1.83589L209.836 1.30108M51.6505 3.49131C51.1351 -9.49025 50.8774 -15.981 55.7535 -21.9865C60.6296 -27.9919 66.4656 -28.9766 78.1376 -30.9459C89.6592 -32.8898 104.72 -34.5 123.002 -34.5C141.283 -34.5 156.344 -32.8898 167.866 -30.9459C179.538 -28.9766 185.374 -27.9919 190.25 -21.9865C195.126 -15.981 194.868 -9.49025 194.353 3.49131C192.583 48.0582 182.966 103.724 130.688 108.648V144.875H145.347C150.233 144.875 154.44 148.324 155.398 153.115L157.338 162.812H184.5C188.746 162.812 192.188 166.254 192.188 170.5C192.188 174.746 188.746 178.188 184.5 178.188H61.5C57.2543 178.188 53.8125 174.746 53.8125 170.5C53.8125 166.254 57.2543 162.812 61.5 162.812H88.6625L90.602 153.115C91.5603 148.324 95.767 144.875 100.653 144.875H115.312V108.648C63.0371 103.722 53.4198 48.0573 51.6505 3.49131ZM131.754 6.73075L132.762 8.53841C133.869 10.524 134.422 11.5167 135.285 12.1718C136.148 12.8268 137.222 13.0699 139.372 13.5562L141.328 13.999C148.892 15.7103 152.674 16.566 153.573 19.4593C154.473 22.3526 151.895 25.3674 146.739 31.397L145.405 32.957C143.939 34.6704 143.207 35.5271 142.877 36.587C142.548 37.6469 142.658 38.7899 142.88 41.076L143.082 43.1573C143.861 51.2021 144.251 55.2245 141.895 57.0127C139.54 58.8008 135.999 57.1705 128.917 53.9098L127.085 53.0663C125.073 52.1397 124.067 51.6764 123 51.6764C121.933 51.6764 120.927 52.1397 118.915 53.0663L117.083 53.9098C110.001 57.1705 106.46 58.8008 104.105 57.0127C101.749 55.2245 102.139 51.2021 102.918 43.1573L103.12 41.076C103.342 38.7899 103.452 37.6469 103.123 36.587C102.793 35.5271 102.061 34.6704 100.595 32.957L99.2613 31.397C94.105 25.3674 91.5268 22.3526 92.4266 19.4593C93.3263 16.566 97.1081 15.7103 104.672 13.999L106.628 13.5562C108.778 13.0699 109.852 12.8268 110.715 12.1718C111.578 11.5167 112.132 10.5239 113.238 8.53842L114.246 6.73076C118.141 -0.256396 120.088 -3.75 123 -3.75C125.912 -3.75 127.859 -0.256414 131.754 6.73075Z" stroke="#262626" stroke-width="2" stroke-linecap="round" stroke-dasharray="16 6"/>
</svg>
