<svg width="173" height="211" viewBox="0 0 173 211" fill="none" xmlns="http://www.w3.org/2000/svg">
<path d="M115.312 37.3228H116.312V36.1611L115.164 36.3339L115.312 37.3228ZM130.688 37.3228L130.836 36.3339L129.688 36.1611V37.3228H130.688ZM68.6412 33.6412L69.3483 34.3483V34.3483L68.6412 33.6412ZM68.6412 19.1455L69.3483 18.4384V18.4384L68.6412 19.1455ZM54.1455 33.6412L53.4384 34.3483V34.3483L54.1455 33.6412ZM54.1455 19.1455L54.8526 19.8526V19.8526L54.1455 19.1455ZM191.855 142.36L192.562 141.653V141.653L191.855 142.36ZM191.855 156.856L192.562 157.563V157.563L191.855 156.856ZM177.359 142.36L176.652 141.653V141.653L177.359 142.36ZM177.359 156.856L176.652 157.563V157.563L177.359 156.856ZM177.359 33.6412L176.652 34.3483V34.3483L177.359 33.6412ZM191.855 33.6412L192.562 34.3483V34.3483L191.855 33.6412ZM177.359 19.1455L176.652 18.4384V18.4384L177.359 19.1455ZM191.855 19.1455L192.562 18.4384V18.4384L191.855 19.1455ZM68.6412 156.855L69.3483 157.562V157.562L68.6412 156.855ZM54.1455 156.855L53.4384 157.562H53.4384L54.1455 156.855ZM68.6412 142.359L69.3483 141.652V141.652L68.6412 142.359ZM54.1455 142.359L53.4384 141.652H53.4384L54.1455 142.359ZM134.25 0.875C134.25 -1.36457 133.595 -3.4541 132.465 -5.2086L130.783 -4.12575C131.711 -2.68443 132.25 -0.969141 132.25 0.875H134.25ZM129.084 -8.58969C127.329 -9.71955 125.24 -10.375 123 -10.375V-8.375C124.844 -8.375 126.559 -7.83637 128.001 -6.90819L129.084 -8.58969ZM123 -10.375C120.76 -10.375 118.671 -9.71955 116.916 -8.58969L117.999 -6.90819C119.441 -7.83637 121.156 -8.375 123 -8.375V-10.375ZM113.535 -5.2086C112.405 -3.4541 111.75 -1.36457 111.75 0.875H113.75C113.75 -0.969142 114.289 -2.68443 115.217 -4.12575L113.535 -5.2086ZM111.75 0.875C111.75 3.11457 112.405 5.2041 113.535 6.9586L115.217 5.87575C114.289 4.43443 113.75 2.71914 113.75 0.875H111.75ZM116.916 10.3397C118.671 11.4696 120.76 12.125 123 12.125V10.125C121.156 10.125 119.441 9.58637 117.999 8.65819L116.916 10.3397ZM123 12.125C125.24 12.125 127.329 11.4696 129.084 10.3397L128.001 8.65819C126.559 9.58637 124.844 10.125 123 10.125V12.125ZM132.465 6.9586C133.595 5.2041 134.25 3.11457 134.25 0.875H132.25C132.25 2.71914 131.711 4.43443 130.783 5.87575L132.465 6.9586ZM115.164 36.3339C112.16 36.7857 109.239 37.4933 106.426 38.4339L107.06 40.3307C109.765 39.4265 112.573 38.7461 115.461 38.3116L115.164 36.3339ZM100.183 40.9825C94.7478 43.6248 89.8404 47.1812 85.6601 51.4515L87.0893 52.8506C91.1108 48.7425 95.8311 45.322 101.057 42.7812L100.183 40.9825ZM81.2629 56.5615C77.6836 61.306 74.8941 66.6809 73.0906 72.4905L75.0007 73.0835C76.7345 67.4982 79.4166 62.3296 82.8595 57.766L81.2629 56.5615ZM71.5143 79.0467C71.0118 81.9565 70.75 84.9481 70.75 88H72.75C72.75 85.0627 73.0019 82.1849 73.4851 79.3871L71.5143 79.0467ZM70.75 88C70.75 90.5247 70.9291 93.0082 71.2755 95.4382L73.2555 95.156C72.9224 92.8191 72.75 90.43 72.75 88H70.75ZM72.3612 100.925C73.6063 105.818 75.5419 110.435 78.0576 114.666L79.7767 113.644C77.3573 109.575 75.4965 105.136 74.2994 100.432L72.3612 100.925ZM81.1693 119.314C84.1571 123.299 87.701 126.843 91.686 129.831L92.8857 128.231C89.0525 125.357 85.6434 121.948 82.7694 118.114L81.1693 119.314ZM96.334 132.942C100.565 135.458 105.182 137.394 110.075 138.639L110.568 136.701C105.864 135.504 101.425 133.643 97.3561 131.223L96.334 132.942ZM115.562 139.724C117.992 140.071 120.475 140.25 123 140.25V138.25C120.57 138.25 118.181 138.078 115.844 137.745L115.562 139.724ZM123 140.25C125.525 140.25 128.008 140.071 130.438 139.724L130.156 137.745C127.819 138.078 125.43 138.25 123 138.25V140.25ZM135.925 138.639C140.818 137.394 145.435 135.458 149.666 132.942L148.644 131.223C144.575 133.643 140.136 135.504 135.432 136.701L135.925 138.639ZM154.314 129.831C158.299 126.843 161.843 123.299 164.831 119.314L163.231 118.114C160.357 121.947 156.947 125.357 153.114 128.231L154.314 129.831ZM167.942 114.666C170.458 110.435 172.394 105.818 173.639 100.925L171.701 100.432C170.504 105.136 168.643 109.575 166.223 113.644L167.942 114.666ZM174.724 95.4382C175.071 93.0082 175.25 90.5247 175.25 88H173.25C173.25 90.43 173.078 92.8191 172.744 95.156L174.724 95.4382ZM175.25 88C175.25 84.9481 174.988 81.9565 174.486 79.0467L172.515 79.3871C172.998 82.1849 173.25 85.0627 173.25 88H175.25ZM172.909 72.4905C171.106 66.6809 168.316 61.306 164.737 56.5615L163.141 57.766C166.583 62.3296 169.266 67.4982 170.999 73.0835L172.909 72.4905ZM160.34 51.4515C156.16 47.1812 151.252 43.6248 145.817 40.9825L144.943 42.7812C150.169 45.322 154.889 48.7425 158.911 52.8506L160.34 51.4515ZM139.574 38.4339C136.761 37.4933 133.84 36.7857 130.836 36.3339L130.539 38.3116C133.427 38.7461 136.235 39.4265 138.94 40.3307L139.574 38.4339ZM129.688 37.3228V44.6732H131.688V37.3228H129.688ZM129.688 50.186V64.8868H131.688V50.186H129.688ZM129.688 70.3996V77.75H131.688V70.3996H129.688ZM129.688 77.75C129.688 79.0837 129.298 80.3234 128.627 81.3652L130.309 82.4481C131.181 81.0931 131.688 79.4791 131.688 77.75H129.688ZM126.615 83.3772C125.573 84.0482 124.334 84.4375 123 84.4375V86.4375C124.729 86.4375 126.343 85.9313 127.698 85.0587L126.615 83.3772ZM123 84.4375C121.666 84.4375 120.427 84.0482 119.385 83.3772L118.302 85.0587C119.657 85.9313 121.271 86.4375 123 86.4375V84.4375ZM117.373 81.3652C116.702 80.3234 116.312 79.0837 116.312 77.75H114.312C114.312 79.4791 114.819 81.0931 115.691 82.4481L117.373 81.3652ZM116.312 77.75V70.3996H114.312V77.75H116.312ZM116.312 64.8868V50.186H114.312V64.8868H116.312ZM116.312 44.6732V37.3228H114.312V44.6732H116.312ZM200.875 88C200.875 86.1559 201.414 84.4406 202.342 82.9993L200.66 81.9164C199.53 83.6709 198.875 85.7604 198.875 88H200.875ZM205.124 80.2168C206.566 79.2886 208.281 78.75 210.125 78.75V76.75C207.885 76.75 205.796 77.4054 204.041 78.5353L205.124 80.2168ZM210.125 78.75C211.969 78.75 213.684 79.2886 215.126 80.2168L216.209 78.5353C214.454 77.4054 212.365 76.75 210.125 76.75V78.75ZM217.908 82.9992C218.836 84.4406 219.375 86.1559 219.375 88H221.375C221.375 85.7604 220.72 83.6709 219.59 81.9164L217.908 82.9992ZM219.375 88C219.375 89.8441 218.836 91.5594 217.908 93.0007L219.59 94.0836C220.72 92.3291 221.375 90.2396 221.375 88H219.375ZM215.126 95.7832C213.684 96.7114 211.969 97.25 210.125 97.25V99.25C212.365 99.25 214.454 98.5946 216.209 97.4647L215.126 95.7832ZM210.125 97.25C208.281 97.25 206.566 96.7114 205.124 95.7832L204.041 97.4647C205.796 98.5946 207.885 99.25 210.125 99.25V97.25ZM202.342 93.0008C201.414 91.5594 200.875 89.8441 200.875 88H198.875C198.875 90.2396 199.53 92.3291 200.66 94.0836L202.342 93.0008ZM35.875 97.25C34.0309 97.25 32.3156 96.7114 30.8742 95.7832L29.7914 97.4647C31.5459 98.5946 33.6354 99.25 35.875 99.25V97.25ZM28.0918 93.0008C27.1636 91.5594 26.625 89.8441 26.625 88H24.625C24.625 90.2396 25.2804 92.3291 26.4103 94.0836L28.0918 93.0008ZM26.625 88C26.625 86.1559 27.1636 84.4406 28.0918 82.9993L26.4103 81.9164C25.2804 83.6709 24.625 85.7604 24.625 88H26.625ZM30.8742 80.2168C32.3156 79.2886 34.0309 78.75 35.875 78.75V76.75C33.6354 76.75 31.5459 77.4054 29.7914 78.5353L30.8742 80.2168ZM35.875 78.75C37.7191 78.75 39.4344 79.2886 40.8758 80.2168L41.9586 78.5353C40.2041 77.4054 38.1146 76.75 35.875 76.75V78.75ZM43.6582 82.9992C44.5864 84.4406 45.125 86.1559 45.125 88H47.125C47.125 85.7604 46.4696 83.6709 45.3397 81.9164L43.6582 82.9992ZM45.125 88C45.125 89.8441 44.5864 91.5594 43.6582 93.0007L45.3397 94.0836C46.4696 92.3291 47.125 90.2396 47.125 88H45.125ZM40.8758 95.7832C39.4344 96.7114 37.7191 97.25 35.875 97.25V99.25C38.1146 99.25 40.2041 98.5946 41.9586 97.4647L40.8758 95.7832ZM67.934 32.934C66.63 34.2381 65.0363 35.0701 63.3608 35.4329L63.7841 37.3876C65.8237 36.9459 67.7646 35.9319 69.3483 34.3483L67.934 32.934ZM59.4258 35.4329C57.7503 35.0701 56.1566 34.2381 54.8526 32.934L53.4384 34.3483C55.022 35.9319 56.963 36.9459 59.0025 37.3876L59.4258 35.4329ZM54.8526 32.934C53.5486 31.63 52.7165 30.0363 52.3537 28.3608L50.399 28.7841C50.8407 30.8237 51.8547 32.7646 53.4384 34.3483L54.8526 32.934ZM52.3537 24.4258C52.7165 22.7503 53.5486 21.1566 54.8526 19.8526L53.4384 18.4384C51.8547 20.022 50.8407 21.963 50.399 24.0025L52.3537 24.4258ZM54.8526 19.8526C56.1566 18.5486 57.7503 17.7165 59.4258 17.3537L59.0025 15.399C56.963 15.8407 55.022 16.8547 53.4384 18.4384L54.8526 19.8526ZM63.3608 17.3537C65.0363 17.7165 66.63 18.5486 67.934 19.8526L69.3483 18.4384C67.7646 16.8547 65.8237 15.8407 63.7841 15.399L63.3608 17.3537ZM67.934 19.8526C69.2381 21.1566 70.0701 22.7503 70.4329 24.4258L72.3876 24.0025C71.9459 21.963 70.9319 20.022 69.3483 18.4384L67.934 19.8526ZM70.4329 28.3608C70.0701 30.0363 69.2381 31.63 67.934 32.934L69.3483 34.3483C70.9319 32.7646 71.9459 30.8237 72.3876 28.7841L70.4329 28.3608ZM192.562 141.653C190.978 140.069 189.037 139.055 186.997 138.613L186.574 140.568C188.25 140.931 189.843 141.763 191.147 143.067L192.562 141.653ZM182.216 138.613C180.176 139.055 178.235 140.069 176.652 141.653L178.066 143.067C179.37 141.763 180.964 140.931 182.639 140.568L182.216 138.613ZM176.652 141.653C175.068 143.236 174.054 145.177 173.612 147.217L175.567 147.64C175.93 145.965 176.762 144.371 178.066 143.067L176.652 141.653ZM173.612 151.998C174.054 154.038 175.068 155.979 176.652 157.563L178.066 156.148C176.762 154.844 175.93 153.251 175.567 151.575L173.612 151.998ZM176.652 157.563C178.235 159.146 180.176 160.16 182.216 160.602L182.639 158.647C180.964 158.284 179.37 157.452 178.066 156.148L176.652 157.563ZM186.997 160.602C189.037 160.16 190.978 159.146 192.562 157.563L191.147 156.148C189.843 157.452 188.25 158.284 186.574 158.647L186.997 160.602ZM192.562 157.563C194.145 155.979 195.159 154.038 195.601 151.998L193.646 151.575C193.283 153.251 192.451 154.844 191.147 156.148L192.562 157.563ZM195.601 147.217C195.159 145.177 194.145 143.236 192.562 141.653L191.147 143.067C192.451 144.371 193.283 145.965 193.646 147.64L195.601 147.217ZM178.066 32.934C176.762 31.63 175.93 30.0363 175.567 28.3608L173.612 28.7841C174.054 30.8237 175.068 32.7646 176.652 34.3483L178.066 32.934ZM175.567 24.4258C175.93 22.7503 176.762 21.1566 178.066 19.8526L176.652 18.4384C175.068 20.022 174.054 21.963 173.612 24.0025L175.567 24.4258ZM178.066 19.8526C179.37 18.5486 180.964 17.7165 182.639 17.3537L182.216 15.399C180.176 15.8407 178.235 16.8547 176.652 18.4384L178.066 19.8526ZM186.574 17.3537C188.25 17.7165 189.843 18.5486 191.147 19.8526L192.562 18.4384C190.978 16.8547 189.037 15.8407 186.997 15.399L186.574 17.3537ZM191.147 19.8526C192.451 21.1566 193.283 22.7503 193.646 24.4258L195.601 24.0025C195.159 21.963 194.145 20.022 192.562 18.4384L191.147 19.8526ZM193.646 28.3608C193.283 30.0363 192.451 31.63 191.147 32.934L192.562 34.3483C194.145 32.7646 195.159 30.8237 195.601 28.7841L193.646 28.3608ZM191.147 32.934C189.843 34.2381 188.25 35.0701 186.574 35.4329L186.997 37.3876C189.037 36.9459 190.978 35.9319 192.562 34.3483L191.147 32.934ZM182.639 35.4329C180.964 35.0701 179.37 34.2381 178.066 32.934L176.652 34.3483C178.235 35.9319 180.176 36.9459 182.216 37.3876L182.639 35.4329ZM67.934 156.147C66.63 157.451 65.0363 158.283 63.3608 158.646L63.7841 160.601C65.8237 160.159 67.7646 159.145 69.3483 157.562L67.934 156.147ZM59.4258 158.646C57.7503 158.283 56.1566 157.451 54.8526 156.147L53.4384 157.562C55.022 159.145 56.963 160.159 59.0025 160.601L59.4258 158.646ZM54.8526 156.147C53.5486 154.843 52.7165 153.25 52.3537 151.574L50.399 151.997C50.8407 154.037 51.8547 155.978 53.4384 157.562L54.8526 156.147ZM52.3537 147.639C52.7165 145.964 53.5486 144.37 54.8526 143.066L53.4384 141.652C51.8547 143.235 50.8407 145.176 50.399 147.216L52.3537 147.639ZM54.8526 143.066C56.1566 141.762 57.7503 140.93 59.4258 140.567L59.0025 138.612C56.963 139.054 55.022 140.068 53.4384 141.652L54.8526 143.066ZM63.3608 140.567C65.0363 140.93 66.63 141.762 67.934 143.066L69.3483 141.652C67.7646 140.068 65.8237 139.054 63.7841 138.612L63.3608 140.567ZM67.934 143.066C69.2381 144.37 70.0701 145.964 70.4329 147.639L72.3876 147.216C71.9459 145.176 70.9319 143.235 69.3483 141.652L67.934 143.066ZM70.4329 151.574C70.0701 153.25 69.2381 154.843 67.934 156.147L69.3483 157.562C70.9319 155.978 71.9459 154.037 72.3876 151.997L70.4329 151.574Z" fill="#262626"/>
</svg>
