<svg width="29" height="29" viewBox="0 0 29 29" fill="none" xmlns="http://www.w3.org/2000/svg">
<path d="M9.45084 14.1666C9.45084 11.5587 11.5657 9.44404 14.1751 9.44404C16.7846 9.44404 18.9005 11.5587 18.9005 14.1666C18.9005 16.7745 16.7846 18.8892 14.1751 18.8892C11.5657 18.8892 9.45084 16.7745 9.45084 14.1666ZM6.89637 14.1666C6.89637 18.1843 10.1551 21.441 14.1751 21.441C18.1952 21.441 21.4539 18.1843 21.4539 14.1666C21.4539 10.149 18.1952 6.89223 14.1751 6.89223C10.1551 6.89223 6.89637 10.149 6.89637 14.1666ZM20.041 6.6038C20.0409 6.94003 20.1405 7.26875 20.3273 7.54838C20.5141 7.82802 20.7797 8.04602 21.0905 8.17481C21.4012 8.30361 21.7432 8.33741 22.0732 8.27194C22.4032 8.20648 22.7064 8.04469 22.9444 7.80704C23.1823 7.56939 23.3445 7.26654 23.4102 6.9368C23.476 6.60706 23.4425 6.26523 23.3138 5.95455C23.1852 5.64387 22.9673 5.37827 22.6876 5.19137C22.408 5.00446 22.0791 4.90462 21.7427 4.90449H21.742C21.2911 4.9047 20.8586 5.08378 20.5397 5.4024C20.2208 5.72101 20.0414 6.15312 20.041 6.6038ZM8.44838 25.6979C7.06636 25.635 6.31519 25.405 5.816 25.2106C5.15419 24.9531 4.68199 24.6464 4.18552 24.1509C3.68905 23.6554 3.38173 23.184 3.12522 22.5226C2.93062 22.0239 2.70042 21.2729 2.63759 19.8918C2.56887 18.3985 2.55515 17.9499 2.55515 14.1667C2.55515 10.3836 2.57001 9.93625 2.63759 8.44172C2.70053 7.06053 2.93244 6.31106 3.12522 5.81092C3.38287 5.14951 3.68973 4.67759 4.18552 4.18142C4.68131 3.68525 5.15306 3.37812 5.816 3.12176C6.31496 2.92728 7.06636 2.69721 8.44838 2.63443C9.94255 2.56575 10.3914 2.55203 14.1751 2.55203C17.9589 2.55203 18.4082 2.56688 19.9036 2.63443C21.2856 2.69733 22.0355 2.92909 22.536 3.12176C23.1978 3.37812 23.67 3.68593 24.1664 4.18142C24.6629 4.67691 24.9691 5.14951 25.2267 5.81092C25.4213 6.30959 25.6515 7.06053 25.7144 8.44172C25.7831 9.93625 25.7968 10.3836 25.7968 14.1667C25.7968 17.9499 25.7831 18.3972 25.7144 19.8918C25.6514 21.2729 25.4201 22.0237 25.2267 22.5226C24.9691 23.184 24.6622 23.6559 24.1664 24.1509C23.6707 24.646 23.1978 24.9531 22.536 25.2106C22.037 25.4051 21.2856 25.6351 19.9036 25.6979C18.4094 25.7666 17.9606 25.7803 14.1751 25.7803C10.3897 25.7803 9.94209 25.7666 8.44838 25.6979ZM8.33101 0.0857931C6.82198 0.154473 5.79082 0.393606 4.89031 0.743805C3.9577 1.10545 3.1682 1.59063 2.37927 2.37784C1.59034 3.16505 1.10611 3.95532 0.744251 4.88737C0.393842 5.78792 0.154566 6.81789 0.0858446 8.32601C0.0159895 9.83651 0 10.3194 0 14.1666C0 18.0138 0.0159895 18.4967 0.0858446 20.0072C0.154566 21.5155 0.393842 22.5453 0.744251 23.4459C1.10611 24.3774 1.59045 25.1685 2.37927 25.9554C3.16808 26.7423 3.9577 27.2268 4.89031 27.5895C5.79252 27.9397 6.82198 28.1788 8.33101 28.2475C9.84321 28.3161 10.3256 28.3333 14.1751 28.3333C18.0246 28.3333 18.5078 28.3173 20.0192 28.2475C21.5284 28.1788 22.5589 27.9397 23.4599 27.5895C24.392 27.2268 25.1821 26.7426 25.971 25.9554C26.7599 25.1682 27.2431 24.3774 27.606 23.4459C27.9564 22.5453 28.1968 21.5154 28.2644 20.0072C28.3331 18.4956 28.3491 18.0138 28.3491 14.1666C28.3491 10.3194 28.3331 9.83651 28.2644 8.32601C28.1957 6.81778 27.9564 5.78735 27.606 4.88737C27.2431 3.95589 26.7587 3.1663 25.971 2.37784C25.1833 1.58938 24.392 1.10545 23.4611 0.743805C22.5589 0.393606 21.5283 0.15334 20.0204 0.0857931C18.509 0.0171133 18.0258 0 14.1763 0C10.3268 0 9.84321 0.01598 8.33101 0.0857931Z" fill="#0F0F0F"/>
</svg>
