<svg width="125" height="63" viewBox="0 0 125 63" fill="none" xmlns="http://www.w3.org/2000/svg">
<rect width="125" height="63" rx="12" fill="#C2B4A3"/>
<path d="M32.2656 38L30.71 25.2031H32.2568L33.1797 34.0273L33.2324 34.5371L33.3291 34.0098L34.876 25.2031H36.291L37.8467 34.0186L37.9434 34.5371L37.9961 34.0098L38.9189 25.2031H40.457L38.9014 38H37.2402L35.6846 28.8945L35.5967 28.3584L35.5 28.9033L33.9355 38H32.2656ZM41.9512 33.1572C41.9512 32.4717 42.0508 31.8359 42.25 31.25C42.4492 30.6582 42.7363 30.1455 43.1113 29.7119C43.4805 29.2783 43.9316 28.9385 44.4648 28.6924C44.998 28.4404 45.5986 28.3145 46.2666 28.3145C46.9404 28.3145 47.5439 28.4404 48.0771 28.6924C48.6162 28.9385 49.0732 29.2783 49.4482 29.7119C49.8174 30.1455 50.1016 30.6582 50.3008 31.25C50.5 31.8359 50.5996 32.4717 50.5996 33.1572V33.3506C50.5996 34.0361 50.5 34.6719 50.3008 35.2578C50.1016 35.8438 49.8174 36.3535 49.4482 36.7871C49.0732 37.2207 48.6191 37.5605 48.0859 37.8066C47.5527 38.0527 46.9521 38.1758 46.2842 38.1758C45.6104 38.1758 45.0039 38.0527 44.4648 37.8066C43.9316 37.5605 43.4805 37.2207 43.1113 36.7871C42.7363 36.3535 42.4492 35.8438 42.25 35.2578C42.0508 34.6719 41.9512 34.0361 41.9512 33.3506V33.1572ZM43.5771 33.3506C43.5771 33.8193 43.6328 34.2676 43.7441 34.6953C43.8555 35.1172 44.0254 35.4893 44.2539 35.8115C44.4766 36.1338 44.7578 36.3887 45.0977 36.5762C45.4375 36.7637 45.833 36.8574 46.2842 36.8574C46.7295 36.8574 47.1191 36.7637 47.4531 36.5762C47.793 36.3887 48.0771 36.1338 48.3057 35.8115C48.5283 35.4893 48.6953 35.1172 48.8066 34.6953C48.918 34.2676 48.9736 33.8193 48.9736 33.3506V33.1572C48.9736 32.6943 48.915 32.252 48.7979 31.8301C48.6865 31.4023 48.5195 31.0273 48.2969 30.7051C48.0684 30.3828 47.7842 30.1279 47.4443 29.9404C47.1104 29.7471 46.7178 29.6504 46.2666 29.6504C45.8154 29.6504 45.4229 29.7471 45.0889 29.9404C44.7549 30.1279 44.4766 30.3828 44.2539 30.7051C44.0254 31.0273 43.8555 31.4023 43.7441 31.8301C43.6328 32.252 43.5771 32.6943 43.5771 33.1572V33.3506ZM53.9658 28.4902L54.0098 29.3867C54.2031 29.0527 54.4551 28.792 54.7656 28.6045C55.082 28.417 55.4629 28.3203 55.9082 28.3145C56.1602 28.3145 56.3857 28.3438 56.585 28.4023C56.79 28.4551 56.9688 28.5342 57.1211 28.6396C57.2324 28.7217 57.332 28.8213 57.4199 28.9385C57.5137 29.0557 57.5928 29.1875 57.6572 29.334C57.7393 29.1992 57.8359 29.0732 57.9473 28.9561C58.0586 28.8389 58.1787 28.7363 58.3076 28.6484C58.4717 28.5488 58.6533 28.4697 58.8525 28.4111C59.0576 28.3525 59.2803 28.3203 59.5205 28.3145C59.8486 28.3145 60.1445 28.3643 60.4082 28.4639C60.6719 28.5576 60.8945 28.6982 61.0762 28.8857C61.2754 29.0967 61.4277 29.3721 61.5332 29.7119C61.6387 30.0459 61.6914 30.4414 61.6914 30.8984V38H60.1445V30.8809C60.1445 30.6816 60.1211 30.5059 60.0742 30.3535C60.0273 30.2012 59.96 30.0752 59.8721 29.9756C59.7783 29.8818 59.6611 29.8115 59.5205 29.7646C59.3857 29.7178 59.2275 29.6943 59.0459 29.6943C58.8525 29.6943 58.6855 29.7207 58.5449 29.7734C58.4043 29.8262 58.2871 29.8965 58.1934 29.9844C58.0996 30.0781 58.0264 30.1865 57.9736 30.3096C57.9209 30.4268 57.8857 30.5586 57.8682 30.7051C57.8682 30.7344 57.8682 30.7637 57.8682 30.793C57.8682 30.8164 57.8682 30.8457 57.8682 30.8809V38H56.3213V30.8721C56.3213 30.6729 56.2979 30.4971 56.251 30.3447C56.21 30.1924 56.1426 30.0664 56.0488 29.9668C55.9609 29.873 55.8496 29.8057 55.7148 29.7646C55.5859 29.7178 55.4336 29.6943 55.2578 29.6943C55.0645 29.6943 54.8945 29.7178 54.748 29.7646C54.6074 29.8057 54.4873 29.8672 54.3877 29.9492C54.3115 30.0137 54.2441 30.0869 54.1855 30.1689C54.1328 30.251 54.0889 30.3389 54.0537 30.4326V38H52.5068V28.4902H53.9658ZM68.2305 38.1758C67.5625 38.1758 66.9473 38.0615 66.3848 37.833C65.8281 37.6045 65.3506 37.2852 64.9521 36.875C64.5537 36.4648 64.2432 35.9785 64.0205 35.416C63.7979 34.8535 63.6865 34.2412 63.6865 33.5791V33.21C63.6865 32.4424 63.8096 31.7568 64.0557 31.1533C64.3018 30.5439 64.6299 30.0283 65.04 29.6064C65.4443 29.1904 65.9043 28.8711 66.4199 28.6484C66.9414 28.4258 67.4746 28.3145 68.0195 28.3145C68.7051 28.3145 69.3027 28.4346 69.8125 28.6748C70.3281 28.9092 70.7559 29.2344 71.0957 29.6504C71.4355 30.0723 71.6875 30.5674 71.8516 31.1357C72.0215 31.7041 72.1064 32.3193 72.1064 32.9814V33.7109H65.3125V33.7725C65.3535 34.2354 65.4443 34.6426 65.585 34.9941C65.7314 35.3457 65.9307 35.6562 66.1826 35.9258C66.4404 36.2129 66.751 36.4385 67.1143 36.6025C67.4775 36.7666 67.8789 36.8486 68.3184 36.8486C68.8984 36.8486 69.4141 36.7314 69.8652 36.4971C70.3164 36.2627 70.6914 35.9521 70.9902 35.5654L71.9834 36.3389C71.667 36.8193 71.1924 37.2471 70.5596 37.6221C69.9326 37.9912 69.1562 38.1758 68.2305 38.1758ZM68.0195 29.6504C67.6914 29.6504 67.3809 29.7119 67.0879 29.835C66.7949 29.9521 66.5312 30.125 66.2969 30.3535C66.0625 30.5879 65.8633 30.875 65.6992 31.2148C65.541 31.5488 65.4297 31.9355 65.3652 32.375H70.4805V32.2959C70.4805 32.0029 70.4248 31.6895 70.3135 31.3555C70.2021 31.0156 70.0469 30.7227 69.8477 30.4766C69.6484 30.2305 69.3965 30.0312 69.0918 29.8789C68.793 29.7266 68.4355 29.6504 68.0195 29.6504ZM74.8398 38V28.4902H76.2988L76.4131 29.8965C76.5537 29.6973 76.7061 29.5156 76.8701 29.3516C77.04 29.1816 77.2188 29.0352 77.4062 28.9121C77.6875 28.7246 77.9922 28.5811 78.3203 28.4814C78.6543 28.376 79.0059 28.3203 79.375 28.3145C79.873 28.3145 80.3242 28.3848 80.7285 28.5254C81.1387 28.666 81.4873 28.8857 81.7744 29.1846C82.0615 29.4834 82.2812 29.8643 82.4336 30.3271C82.5918 30.7842 82.6709 31.3291 82.6709 31.9619V38H81.0449V31.9971C81.0449 31.5752 80.998 31.2178 80.9043 30.9248C80.8105 30.6318 80.6729 30.3945 80.4912 30.2129C80.3037 30.0312 80.0752 29.8994 79.8057 29.8174C79.542 29.7354 79.2373 29.6943 78.8916 29.6943C78.5928 29.6943 78.3145 29.7383 78.0566 29.8262C77.7988 29.9082 77.5615 30.0225 77.3447 30.1689C77.1689 30.2979 77.0049 30.4473 76.8525 30.6172C76.7061 30.7871 76.5771 30.9746 76.4658 31.1797V38H74.8398ZM91.9697 35.4775C91.9697 35.2842 91.9316 35.1113 91.8555 34.959C91.7793 34.8008 91.6504 34.6572 91.4688 34.5283C91.2871 34.3994 91.0469 34.2822 90.748 34.1768C90.4492 34.0654 90.0771 33.9658 89.6318 33.8779C89.0869 33.7666 88.5889 33.6318 88.1377 33.4736C87.6924 33.3154 87.3115 33.125 86.9951 32.9023C86.6729 32.6855 86.4238 32.4307 86.248 32.1377C86.0723 31.8389 85.9844 31.4932 85.9844 31.1006C85.9844 30.7139 86.0752 30.3535 86.2568 30.0195C86.4385 29.6797 86.6934 29.3838 87.0215 29.1318C87.3496 28.8799 87.7393 28.6807 88.1904 28.5342C88.6475 28.3877 89.1484 28.3145 89.6934 28.3145C90.2793 28.3145 90.8066 28.3906 91.2754 28.543C91.7441 28.6953 92.1426 28.9062 92.4707 29.1758C92.7988 29.4453 93.0508 29.7617 93.2266 30.125C93.4082 30.4824 93.499 30.8691 93.499 31.2852H91.873C91.873 31.0801 91.8203 30.8809 91.7148 30.6875C91.6094 30.4883 91.4629 30.3125 91.2754 30.1602C91.0879 30.0078 90.8594 29.8848 90.5898 29.791C90.3262 29.6973 90.0273 29.6504 89.6934 29.6504C89.3477 29.6504 89.043 29.6885 88.7793 29.7646C88.5215 29.8408 88.3076 29.9434 88.1377 30.0723C87.9619 30.2012 87.8301 30.3506 87.7422 30.5205C87.6543 30.6904 87.6104 30.8662 87.6104 31.0479C87.6104 31.2354 87.6455 31.4023 87.7158 31.5488C87.7861 31.6953 87.9092 31.8271 88.085 31.9443C88.2549 32.0615 88.4834 32.167 88.7705 32.2607C89.0635 32.3545 89.4326 32.4453 89.8779 32.5332C90.4639 32.6562 90.9883 32.7998 91.4512 32.9639C91.9141 33.1221 92.3037 33.3125 92.6201 33.5352C92.9365 33.7637 93.1768 34.0273 93.3408 34.3262C93.5107 34.625 93.5957 34.9707 93.5957 35.3633C93.5957 35.7852 93.499 36.1689 93.3057 36.5146C93.1182 36.8604 92.8545 37.1562 92.5146 37.4023C92.1748 37.6484 91.7676 37.8389 91.293 37.9736C90.8184 38.1084 90.2998 38.1758 89.7373 38.1758C89.0928 38.1758 88.5186 38.0908 88.0146 37.9209C87.5107 37.7451 87.0859 37.5137 86.7402 37.2266C86.3887 36.9453 86.1191 36.6172 85.9316 36.2422C85.75 35.8672 85.6592 35.4775 85.6592 35.0732H87.2852C87.3086 35.4072 87.3965 35.6885 87.5488 35.917C87.707 36.1455 87.9033 36.3301 88.1377 36.4707C88.3662 36.6113 88.6211 36.7109 88.9023 36.7695C89.1836 36.8281 89.4619 36.8574 89.7373 36.8574C90.1709 36.8574 90.5488 36.8076 90.8711 36.708C91.1934 36.6025 91.4453 36.459 91.627 36.2773C91.7383 36.166 91.8232 36.043 91.8818 35.9082C91.9404 35.7734 91.9697 35.6299 91.9697 35.4775Z" fill="#0F0F0F"/>
</svg>
